M48
;Layer_Color=9474304
;FILE_FORMAT=4:3
METRIC,LZ
;TYPE=PLATED
T1F00S00C0.300
T2F00S00C0.500
T3F00S00C0.800
T4F00S00C0.900
%
T01
X00925Y00875
X0095
X00975
X01
X01025
X0105
X01075
X011
X01125
X011125Y009
X01105Y00905
X01124Y00921
X01134Y0092
X011767Y0091657
X01182Y00924
X01172Y00908
X01175Y0089239
X0119Y00964
X01168Y00978
X01155Y00972
X01144Y00987
X01158Y01017
X0115743Y0106021
X01169Y01064
X01183Y01092
X01143
X01115Y01075
X01109Y01065
X011125Y0105
X010875
X010625
X01048Y01078
X01025Y01025
X00995Y01028
X00982Y01051
X0095Y01075
X00925
X009625Y01
X00995Y00987
X01Y00975
X01025
X010375Y0095
X010625
X010875
X011125
X011Y00975
X01099Y00985
X011Y01025
X01059Y00996
X010125Y01
X00994Y00952
Y00939
X009875Y009
X010125
X009625
X01051Y00915
X01207Y00925
X01225Y00925
X01216Y00903
X0125Y00875
X01241Y00978
X0127Y00976
X0126Y0102
X0125Y01025
X01275
X012625Y0105
X01275Y01075
X0125
X01225
X012
X012125Y0105
X012Y01025
X012Y00977
X012Y00963
X013375Y0095
X013625Y009
X013875
X01375Y00875
X013875Y0105
X013625
X013375
X0135Y01075
X01375
X01325Y01025
T02
X00936Y009088
Y010104
Y010612
T03
X01348Y00935
X01385
Y01037
X01348
T04
X011608Y00877
X011862
X01076Y0097
Y010208
X012116Y00877
X01237
M30
