G04 Layer_Color=16777215*
%FSLAX43Y43*%
%MOMM*%
G71*
G01*
G75*
%ADD33C,0.254*%
%ADD34C,0.125*%
%ADD35C,0.100*%
%ADD36C,0.200*%
%ADD37C,0.127*%
%ADD38C,0.500*%
G36*
X107192Y92292D02*
Y92853D01*
X107753D01*
X107192Y92292D01*
D02*
G37*
G36*
X107092Y108592D02*
Y109153D01*
X107653D01*
X107092Y108592D01*
D02*
G37*
D33*
X110140Y102776D02*
G03*
X105060Y102780I-2540J4D01*
G01*
X105060Y96300D02*
G03*
X110140Y96296I2540J0D01*
G01*
X125900Y87396D02*
X126420D01*
X132008D02*
X132500D01*
X125900D02*
Y94000D01*
X132500Y87396D02*
Y94000D01*
X105050Y96340D02*
Y102740D01*
X110150Y96240D02*
Y102790D01*
D34*
X112650Y89225D02*
X115175D01*
X112650Y90375D02*
X115175D01*
X131675Y107750D02*
Y110275D01*
X130525Y107750D02*
Y110275D01*
X136275Y106150D02*
Y108675D01*
X135125Y106150D02*
Y108675D01*
X103525Y99825D02*
Y102600D01*
X104675Y99825D02*
Y102575D01*
Y96600D02*
Y99375D01*
X103525Y96625D02*
Y99375D01*
X125325Y95925D02*
Y98675D01*
X126475Y95900D02*
Y98675D01*
X111575Y95425D02*
Y98175D01*
X110425Y95425D02*
Y98200D01*
X123525Y101925D02*
Y104675D01*
X124675Y101900D02*
Y104675D01*
X121125Y91225D02*
Y93975D01*
X122275Y91200D02*
Y93975D01*
X114875Y105925D02*
Y108675D01*
X113725Y105925D02*
Y108700D01*
X129350Y98775D02*
X131875D01*
X129350Y97625D02*
X131875D01*
X129350Y100175D02*
X131875D01*
X129350Y99025D02*
X131875D01*
X116875Y89425D02*
Y91950D01*
X115725Y89425D02*
Y91950D01*
X96050Y93175D02*
X98575D01*
X96050Y92025D02*
X98575D01*
X96050Y97075D02*
X98575D01*
X96050Y95925D02*
X98575D01*
X96050Y104675D02*
X98575D01*
X96050Y103525D02*
X98575D01*
X96050Y99675D02*
X98575D01*
X96050Y98525D02*
X98575D01*
X129350Y101575D02*
X131875D01*
X129350Y100425D02*
X131875D01*
X96150Y106775D02*
X98675D01*
X96150Y105625D02*
X98675D01*
X99250Y106775D02*
X101775D01*
X99250Y105625D02*
X101775D01*
X118875Y106025D02*
Y108550D01*
X117725Y106025D02*
Y108550D01*
X122525Y89450D02*
Y91975D01*
X123675Y89450D02*
Y91975D01*
X129325Y101825D02*
X131850D01*
X129325Y102975D02*
X131850D01*
X100325Y96025D02*
Y98775D01*
X101475Y96000D02*
Y98775D01*
D35*
X132275Y108350D02*
X133300Y108350D01*
X132800Y108350D02*
X133300Y107850D01*
X132300Y107850D02*
X132800Y108350D01*
X132300Y107850D02*
X133300Y107850D01*
X132800Y107600D02*
Y108600D01*
X134200Y107600D02*
Y108600D01*
X133700Y107850D02*
X134700D01*
X133700D02*
X134200Y108350D01*
X134700Y107850D01*
X133675Y108350D02*
X134700D01*
X92076Y107644D02*
X95632D01*
Y98500D02*
Y107644D01*
Y89356D02*
Y98500D01*
X92076Y89356D02*
X95632D01*
D36*
X103750Y101075D02*
X104450D01*
X103750Y101350D02*
X104450D01*
X103750Y98125D02*
X104450D01*
X103750Y97850D02*
X104450D01*
X125550Y97150D02*
X126250D01*
X125550Y97425D02*
X126250D01*
X110650Y96950D02*
X111350D01*
X110650Y96675D02*
X111350D01*
X123750Y103150D02*
X124450D01*
X123750Y103425D02*
X124450D01*
X121350Y92450D02*
X122050D01*
X121350Y92725D02*
X122050D01*
X113950Y107450D02*
X114650D01*
X113950Y107175D02*
X114650D01*
X130700Y95400D02*
X132200D01*
X127200D02*
X128950D01*
X126950Y95650D02*
X127200Y95400D01*
X126950Y95650D02*
Y97150D01*
X127200Y97400D01*
X128950D01*
X132200Y95400D02*
Y97400D01*
X130700D02*
X132200D01*
X99700Y107100D02*
X101200D01*
X96200D02*
X97950D01*
X95950Y107350D02*
X96200Y107100D01*
X95950Y107350D02*
Y108850D01*
X96200Y109100D01*
X97950D01*
X101200Y107100D02*
Y109100D01*
X99700D02*
X101200D01*
X114810Y86430D02*
Y88970D01*
X124970D01*
X114810Y86430D02*
X124970D01*
Y88970D01*
X112800Y102525D02*
Y102950D01*
X113825Y103975D01*
X112800Y94425D02*
Y95950D01*
Y94425D02*
X114400Y94425D01*
X120775D02*
X122275Y94425D01*
X122275Y95975D01*
X122325Y102525D02*
X122325Y103925D01*
X120800D02*
X122325D01*
X113825Y103975D02*
X114250D01*
X107625Y100300D02*
Y100675D01*
Y100300D02*
X109000D01*
X106250D02*
X107625D01*
Y99925D02*
X109000D01*
Y99550D02*
Y99925D01*
X106250Y99550D02*
Y99925D01*
X107625D01*
X106250Y99175D02*
X107625D01*
X106250D02*
Y99550D01*
X109000Y99175D02*
Y99550D01*
X107625Y99175D02*
X109000D01*
X106250Y98800D02*
X107625D01*
X109000D01*
X107625Y98425D02*
Y98800D01*
X100550Y97250D02*
X101250D01*
X100550Y97525D02*
X101250D01*
D37*
X133100Y88400D02*
X133400D01*
X133100Y88500D02*
X133400D01*
X133100Y88300D02*
Y88500D01*
X135200Y88400D02*
X135500D01*
X135200Y88500D02*
X135500D01*
Y88300D02*
Y88500D01*
X135200Y88300D02*
X135500D01*
X135200D02*
Y90600D01*
X133400Y88300D02*
Y90600D01*
X133100Y88300D02*
X133400D01*
X107092Y109153D02*
X108108D01*
X108108Y106453D01*
X107092D02*
X108108D01*
X107092D02*
X107092Y109153D01*
X107192Y92853D02*
X108208D01*
X108208Y90153D01*
X107192D02*
X108208D01*
X107192D02*
X107192Y92853D01*
X132175Y103211D02*
X132556Y103592D01*
Y104608D01*
X132175Y104989D02*
X132556Y104608D01*
X128758Y104989D02*
X129775D01*
X131553D02*
X132175D01*
X128758Y103211D02*
X129775D01*
X128758D02*
Y104989D01*
X131553Y103211D02*
X132175D01*
X132454Y103490D02*
Y104710D01*
D38*
X105330Y108760D02*
X105325Y108755D01*
X105330Y108750D01*
X105335Y108755D01*
X105330Y108760D01*
X105430Y92460D02*
X105425Y92455D01*
X105430Y92450D01*
X105435Y92455D01*
X105430Y92460D01*
M02*
