G04 Layer_Color=16711935*
%FSLAX43Y43*%
%MOMM*%
G71*
G01*
G75*
%ADD40R,1.103X1.003*%
%ADD48R,3.203X1.703*%
G04:AMPARAMS|DCode=55|XSize=2.603mm|YSize=1.803mm|CornerRadius=0.502mm|HoleSize=0mm|Usage=FLASHONLY|Rotation=180.000|XOffset=0mm|YOffset=0mm|HoleType=Round|Shape=RoundedRectangle|*
%AMROUNDEDRECTD55*
21,1,2.603,0.800,0,0,180.0*
21,1,1.600,1.803,0,0,180.0*
1,1,1.003,-0.800,0.400*
1,1,1.003,0.800,0.400*
1,1,1.003,0.800,-0.400*
1,1,1.003,-0.800,-0.400*
%
%ADD55ROUNDEDRECTD55*%
%ADD56R,1.703X1.703*%
%ADD57C,1.703*%
%ADD58C,1.803*%
%ADD59C,1.203*%
D40*
X96500Y107500D02*
D03*
X98300D02*
D03*
X96400Y95200D02*
D03*
X98200D02*
D03*
X96400Y97800D02*
D03*
X98200D02*
D03*
X96400Y102800D02*
D03*
X98200D02*
D03*
X96400Y93900D02*
D03*
X98200D02*
D03*
X99600Y106200D02*
D03*
X101400D02*
D03*
X96500D02*
D03*
X98300D02*
D03*
D48*
X93600Y106120D02*
D03*
Y103580D02*
D03*
Y101040D02*
D03*
Y98500D02*
D03*
Y95960D02*
D03*
Y93420D02*
D03*
Y90880D02*
D03*
D55*
X138500Y93500D02*
D03*
Y103700D02*
D03*
X134800D02*
D03*
Y93500D02*
D03*
D56*
X123700Y87700D02*
D03*
D57*
X121160D02*
D03*
X118620D02*
D03*
X116080D02*
D03*
D58*
X107600Y102080D02*
D03*
Y97000D02*
D03*
D59*
X93600Y106120D02*
D03*
Y101040D02*
D03*
Y90880D02*
D03*
M02*
