G04 Layer_Physical_Order=1*
G04 Layer_Color=255*
%FSLAX43Y43*%
%MOMM*%
G71*
G01*
G75*
%ADD10R,0.900X0.800*%
%ADD11R,0.800X0.900*%
G04:AMPARAMS|DCode=12|XSize=1.5mm|YSize=1mm|CornerRadius=0.025mm|HoleSize=0mm|Usage=FLASHONLY|Rotation=90.000|XOffset=0mm|YOffset=0mm|HoleType=Round|Shape=RoundedRectangle|*
%AMROUNDEDRECTD12*
21,1,1.500,0.950,0,0,90.0*
21,1,1.450,1.000,0,0,90.0*
1,1,0.050,0.475,0.725*
1,1,0.050,0.475,-0.725*
1,1,0.050,-0.475,-0.725*
1,1,0.050,-0.475,0.725*
%
%ADD12ROUNDEDRECTD12*%
G04:AMPARAMS|DCode=13|XSize=1.8mm|YSize=1.2mm|CornerRadius=0.15mm|HoleSize=0mm|Usage=FLASHONLY|Rotation=90.000|XOffset=0mm|YOffset=0mm|HoleType=Round|Shape=RoundedRectangle|*
%AMROUNDEDRECTD13*
21,1,1.800,0.900,0,0,90.0*
21,1,1.500,1.200,0,0,90.0*
1,1,0.300,0.450,0.750*
1,1,0.300,0.450,-0.750*
1,1,0.300,-0.450,-0.750*
1,1,0.300,-0.450,0.750*
%
%ADD13ROUNDEDRECTD13*%
%ADD14R,0.910X1.220*%
G04:AMPARAMS|DCode=15|XSize=0.91mm|YSize=1.22mm|CornerRadius=0.228mm|HoleSize=0mm|Usage=FLASHONLY|Rotation=180.000|XOffset=0mm|YOffset=0mm|HoleType=Round|Shape=RoundedRectangle|*
%AMROUNDEDRECTD15*
21,1,0.910,0.765,0,0,180.0*
21,1,0.455,1.220,0,0,180.0*
1,1,0.455,-0.228,0.383*
1,1,0.455,0.228,0.383*
1,1,0.455,0.228,-0.383*
1,1,0.455,-0.228,-0.383*
%
%ADD15ROUNDEDRECTD15*%
G04:AMPARAMS|DCode=16|XSize=1.5mm|YSize=0.35mm|CornerRadius=0.035mm|HoleSize=0mm|Usage=FLASHONLY|Rotation=180.000|XOffset=0mm|YOffset=0mm|HoleType=Round|Shape=RoundedRectangle|*
%AMROUNDEDRECTD16*
21,1,1.500,0.280,0,0,180.0*
21,1,1.430,0.350,0,0,180.0*
1,1,0.070,-0.715,0.140*
1,1,0.070,0.715,0.140*
1,1,0.070,0.715,-0.140*
1,1,0.070,-0.715,-0.140*
%
%ADD16ROUNDEDRECTD16*%
G04:AMPARAMS|DCode=17|XSize=1.5mm|YSize=1.2mm|CornerRadius=0.12mm|HoleSize=0mm|Usage=FLASHONLY|Rotation=180.000|XOffset=0mm|YOffset=0mm|HoleType=Round|Shape=RoundedRectangle|*
%AMROUNDEDRECTD17*
21,1,1.500,0.960,0,0,180.0*
21,1,1.260,1.200,0,0,180.0*
1,1,0.240,-0.630,0.480*
1,1,0.240,0.630,0.480*
1,1,0.240,0.630,-0.480*
1,1,0.240,-0.630,-0.480*
%
%ADD17ROUNDEDRECTD17*%
%ADD18R,3.000X1.500*%
G04:AMPARAMS|DCode=19|XSize=0.6mm|YSize=1mm|CornerRadius=0.075mm|HoleSize=0mm|Usage=FLASHONLY|Rotation=270.000|XOffset=0mm|YOffset=0mm|HoleType=Round|Shape=RoundedRectangle|*
%AMROUNDEDRECTD19*
21,1,0.600,0.850,0,0,270.0*
21,1,0.450,1.000,0,0,270.0*
1,1,0.150,-0.425,-0.225*
1,1,0.150,-0.425,0.225*
1,1,0.150,0.425,0.225*
1,1,0.150,0.425,-0.225*
%
%ADD19ROUNDEDRECTD19*%
%ADD20R,5.000X2.200*%
%ADD21R,1.500X2.200*%
%ADD22R,1.650X0.254*%
%ADD23R,0.254X1.650*%
G04:AMPARAMS|DCode=24|XSize=1.27mm|YSize=1.27mm|CornerRadius=0.159mm|HoleSize=0mm|Usage=FLASHONLY|Rotation=0.000|XOffset=0mm|YOffset=0mm|HoleType=Round|Shape=RoundedRectangle|*
%AMROUNDEDRECTD24*
21,1,1.270,0.953,0,0,0.0*
21,1,0.953,1.270,0,0,0.0*
1,1,0.318,0.476,-0.476*
1,1,0.318,-0.476,-0.476*
1,1,0.318,-0.476,0.476*
1,1,0.318,0.476,0.476*
%
%ADD24ROUNDEDRECTD24*%
%ADD25C,0.220*%
G04:AMPARAMS|DCode=26|XSize=2.4mm|YSize=1.6mm|CornerRadius=0.4mm|HoleSize=0mm|Usage=FLASHONLY|Rotation=180.000|XOffset=0mm|YOffset=0mm|HoleType=Round|Shape=RoundedRectangle|*
%AMROUNDEDRECTD26*
21,1,2.400,0.800,0,0,180.0*
21,1,1.600,1.600,0,0,180.0*
1,1,0.800,-0.800,0.400*
1,1,0.800,0.800,0.400*
1,1,0.800,0.800,-0.400*
1,1,0.800,-0.800,-0.400*
%
%ADD26ROUNDEDRECTD26*%
%ADD27R,1.500X1.500*%
%ADD28C,1.500*%
%ADD29C,1.600*%
%ADD30C,0.700*%
%ADD31C,0.500*%
%ADD32C,1.000*%
G36*
X115984Y109469D02*
Y107331D01*
X115520Y106867D01*
X115451Y106764D01*
X115427Y106643D01*
Y106471D01*
X115347Y106417D01*
X115225Y106236D01*
X115183Y106021D01*
X115225Y105806D01*
X115347Y105624D01*
X115529Y105503D01*
X115743Y105460D01*
X115838Y105479D01*
X115984Y105333D01*
Y105025D01*
X115681D01*
Y105079D01*
X115450D01*
Y104000D01*
X115150D01*
Y105079D01*
X115053D01*
X115023Y105123D01*
X114616Y105531D01*
Y105750D01*
X114900D01*
Y107050D01*
X113700D01*
Y105750D01*
X113984D01*
Y105400D01*
X114008Y105279D01*
X114076Y105176D01*
X114473Y104780D01*
Y102975D01*
X114484D01*
Y102900D01*
X114508Y102779D01*
X114576Y102676D01*
X114780Y102473D01*
X114773Y102421D01*
X114638Y102376D01*
X112476Y104538D01*
Y107773D01*
X112452Y107894D01*
X112383Y107997D01*
X111997Y108383D01*
X111894Y108452D01*
X111773Y108476D01*
X110603D01*
X110547Y108589D01*
X110546Y108599D01*
X111931Y109984D01*
X115469D01*
X115984Y109469D01*
D02*
G37*
G36*
X133000Y89500D02*
X133568D01*
X133606Y89373D01*
X133559Y89341D01*
X133469Y89208D01*
X133438Y89050D01*
Y88450D01*
X135162D01*
Y89050D01*
X135131Y89208D01*
X135041Y89341D01*
X134994Y89373D01*
X135032Y89500D01*
X135800D01*
Y86155D01*
X125500D01*
Y93500D01*
X125950D01*
Y92700D01*
X127850D01*
Y93500D01*
X130550D01*
Y92700D01*
X132450D01*
Y93500D01*
X133000D01*
Y89500D01*
D02*
G37*
G36*
X139845Y102755D02*
X135982D01*
X135884Y102735D01*
X135802Y102680D01*
X135420Y102298D01*
X135365Y102216D01*
X135345Y102118D01*
Y102010D01*
X135336Y101987D01*
X135330Y101961D01*
X135322Y101935D01*
X135294Y101727D01*
X135295Y101713D01*
X135293Y101700D01*
X135294Y100429D01*
X135167Y100335D01*
X134650D01*
Y99900D01*
X134500D01*
Y99750D01*
X133492D01*
X133513Y99647D01*
X133561Y99575D01*
X133513Y99503D01*
X133492Y99400D01*
X134500D01*
Y99100D01*
X133492D01*
X133504Y99043D01*
X133426Y98916D01*
X133131D01*
X132223Y99824D01*
X132150Y99873D01*
Y100200D01*
X131322D01*
X131274Y100311D01*
X131348Y100400D01*
X132150D01*
Y101600D01*
X131816D01*
Y101800D01*
X132150D01*
Y103000D01*
X131347D01*
X131261Y103086D01*
X131310Y103203D01*
X131402D01*
Y104100D01*
Y104997D01*
X131124D01*
X131067Y105120D01*
X131969Y106022D01*
X132096Y106004D01*
Y105625D01*
X132113Y105537D01*
X132163Y105463D01*
X132237Y105413D01*
X132325Y105396D01*
X133275D01*
X133363Y105413D01*
X133437Y105463D01*
X133563Y105463D01*
X133637Y105413D01*
X133725Y105396D01*
X134675D01*
X134763Y105413D01*
X134837Y105463D01*
X134887Y105537D01*
X134904Y105625D01*
Y106034D01*
X135100D01*
Y105850D01*
X136300D01*
Y107150D01*
X135100D01*
Y106666D01*
X134904D01*
Y107075D01*
X134887Y107163D01*
X134837Y107237D01*
X134763Y107287D01*
X134675Y107304D01*
X133725D01*
X133637Y107287D01*
X133563Y107237D01*
X133437Y107237D01*
X133363Y107287D01*
X133275Y107304D01*
X132325D01*
X132237Y107287D01*
X132163Y107237D01*
X132113Y107163D01*
X132096Y107075D01*
Y106666D01*
X131850D01*
X131729Y106642D01*
X131626Y106574D01*
X130376Y105324D01*
X130308Y105221D01*
X130284Y105100D01*
Y105040D01*
X130157Y104935D01*
X130124Y104942D01*
X129171D01*
X129031Y104914D01*
X128913Y104835D01*
X128833Y104716D01*
X128805Y104576D01*
Y103624D01*
X128833Y103484D01*
X128913Y103365D01*
X128931Y103353D01*
Y102853D01*
X128955Y102732D01*
X129024Y102629D01*
X129050Y102603D01*
Y101800D01*
X130350D01*
Y102923D01*
X130477Y102976D01*
X130850Y102603D01*
Y101800D01*
X131184D01*
Y101600D01*
X130850D01*
Y100797D01*
X130477Y100424D01*
X130350Y100477D01*
Y101600D01*
X129050D01*
Y100400D01*
X129384D01*
Y100200D01*
X129050D01*
Y99916D01*
X129000D01*
X128879Y99892D01*
X128777Y99824D01*
X128369Y99416D01*
X127631D01*
X126323Y100724D01*
X126221Y100792D01*
X126100Y100816D01*
X123325D01*
Y101119D01*
X123379D01*
Y101350D01*
X122300D01*
Y101633D01*
X122358Y101645D01*
X122366Y101650D01*
X123379D01*
Y101684D01*
X123700D01*
X123821Y101708D01*
X123884Y101750D01*
X124700D01*
Y103050D01*
X123500D01*
Y102316D01*
X123325D01*
Y102327D01*
X121275D01*
Y102239D01*
X121226Y102229D01*
X121123Y102160D01*
X120386Y101424D01*
X120318Y101321D01*
X120294Y101200D01*
Y99374D01*
X119036Y98116D01*
X117250D01*
X117197Y98197D01*
X117015Y98318D01*
X116800Y98361D01*
X116705Y98342D01*
X116216Y98831D01*
Y100488D01*
X116192Y100609D01*
X116123Y100712D01*
X115819Y101016D01*
X115863Y101152D01*
X116015Y101182D01*
X116197Y101303D01*
X116250Y101384D01*
X116900D01*
X117021Y101408D01*
X117123Y101477D01*
X117523Y101877D01*
X117592Y101979D01*
X117616Y102100D01*
Y102975D01*
X120627D01*
Y105025D01*
X118616D01*
Y105750D01*
X118900D01*
Y107050D01*
X117916D01*
Y107369D01*
X118097Y107550D01*
X118900D01*
Y108850D01*
X118862D01*
X118802Y108962D01*
X118818Y108985D01*
X118861Y109200D01*
X118818Y109415D01*
X118697Y109597D01*
X118515Y109718D01*
X118300Y109761D01*
X118085Y109718D01*
X117903Y109597D01*
X117782Y109415D01*
X117739Y109200D01*
X117782Y108985D01*
X117798Y108962D01*
X117738Y108850D01*
X117700D01*
Y108047D01*
X117377Y107724D01*
X117308Y107621D01*
X117284Y107500D01*
Y107039D01*
X117274Y106988D01*
Y106946D01*
X117162Y106886D01*
X117115Y106918D01*
X116900Y106961D01*
X116685Y106918D01*
X116563Y106836D01*
X116482Y106935D01*
X116523Y106977D01*
X116592Y107079D01*
X116616Y107200D01*
Y109600D01*
X116592Y109721D01*
X116523Y109824D01*
X115824Y110523D01*
X115721Y110592D01*
X115600Y110616D01*
X111800D01*
X111679Y110592D01*
X111576Y110523D01*
X110119Y109066D01*
X109587D01*
X109584Y109082D01*
X109523Y109173D01*
X109432Y109234D01*
X109325Y109255D01*
X108892D01*
X108424Y109724D01*
X108321Y109792D01*
X108200Y109816D01*
X104400D01*
X104279Y109792D01*
X104176Y109724D01*
X102676Y108224D01*
X102608Y108121D01*
X102584Y108000D01*
Y106231D01*
X102221Y105868D01*
X102104Y105917D01*
Y106050D01*
X101550D01*
Y105546D01*
X101733D01*
X101782Y105429D01*
X100769Y104416D01*
X98850D01*
Y104700D01*
X98747D01*
X98679Y104827D01*
X98718Y104885D01*
X98761Y105100D01*
X98718Y105315D01*
X98612Y105473D01*
X98653Y105600D01*
X98823D01*
X98950Y105600D01*
Y105600D01*
X98950D01*
X98950Y105600D01*
X100250D01*
Y106800D01*
X99077D01*
X98950Y106800D01*
Y106800D01*
X98950D01*
X98950Y106800D01*
X97650D01*
Y105997D01*
X97277Y105624D01*
X97150Y105677D01*
Y106800D01*
X96816D01*
Y107282D01*
X97228D01*
X97394Y107315D01*
X97536Y107409D01*
X97630Y107551D01*
X97663Y107717D01*
Y108482D01*
X97630Y108649D01*
X97536Y108791D01*
X97394Y108885D01*
X97228Y108918D01*
X96772D01*
X96606Y108885D01*
X96464Y108791D01*
X96370Y108649D01*
X96337Y108482D01*
Y107884D01*
X96276Y107824D01*
X96208Y107721D01*
X96184Y107600D01*
Y106800D01*
X95850D01*
Y106436D01*
X95300D01*
Y107070D01*
X91950D01*
X91900Y107070D01*
X91823Y107165D01*
Y108660D01*
X91823Y108660D01*
Y111045D01*
X139845D01*
Y102755D01*
D02*
G37*
G36*
X111844Y106934D02*
Y104407D01*
X111868Y104286D01*
X111937Y104183D01*
X113675Y102444D01*
X113627Y102327D01*
X111775D01*
Y101173D01*
Y100316D01*
X109811D01*
X108496Y101631D01*
X108574Y101819D01*
X108609Y102080D01*
X108574Y102341D01*
X108474Y102584D01*
X108313Y102793D01*
X108104Y102953D01*
X107861Y103054D01*
X107600Y103089D01*
X107339Y103054D01*
X107096Y102953D01*
X106887Y102793D01*
X106727Y102584D01*
X106649Y102396D01*
X104700D01*
Y102750D01*
X103500D01*
Y101450D01*
X104700D01*
Y101764D01*
X106649D01*
X106727Y101576D01*
X106887Y101367D01*
X107096Y101206D01*
X107339Y101106D01*
X107600Y101071D01*
X107861Y101106D01*
X108049Y101184D01*
X109388Y99845D01*
X109377Y99724D01*
X107654Y98001D01*
X107600Y98009D01*
X107339Y97974D01*
X107096Y97873D01*
X106887Y97713D01*
X106727Y97504D01*
X106649Y97316D01*
X104700D01*
Y97750D01*
X103500D01*
Y96450D01*
X104700D01*
Y96684D01*
X106649D01*
X106727Y96496D01*
X106887Y96287D01*
X107096Y96127D01*
X107339Y96026D01*
X107600Y95991D01*
X107861Y96026D01*
X108104Y96127D01*
X108313Y96287D01*
X108474Y96496D01*
X108574Y96739D01*
X108609Y97000D01*
X108574Y97261D01*
X108474Y97504D01*
X108313Y97713D01*
X108310Y97763D01*
X108995Y98448D01*
X109100Y98500D01*
X109700Y97900D01*
X110200Y97900D01*
X110283Y97983D01*
X110400Y97934D01*
Y97050D01*
X111600D01*
Y97684D01*
X111775D01*
Y96618D01*
X111654Y96604D01*
X111648Y96604D01*
X111150D01*
Y96050D01*
X111654D01*
Y96159D01*
X111775Y96173D01*
X111781Y96173D01*
X113784D01*
Y94331D01*
X112829Y93376D01*
X108421D01*
X107974Y93824D01*
X107871Y93892D01*
X107750Y93916D01*
X103131D01*
X101324Y95723D01*
X101377Y95850D01*
X101500D01*
Y97150D01*
X100300D01*
Y97016D01*
X100031D01*
X99123Y97924D01*
X99021Y97992D01*
X98900Y98016D01*
X97931D01*
X97616Y98331D01*
Y98500D01*
X98850D01*
X98850Y98500D01*
Y98500D01*
X98977Y98510D01*
X98982Y98485D01*
X99103Y98303D01*
X99285Y98182D01*
X99500Y98139D01*
X99715Y98182D01*
X99897Y98303D01*
X100018Y98485D01*
X100061Y98700D01*
X100018Y98915D01*
X99897Y99097D01*
X99816Y99150D01*
Y100269D01*
X105131Y105584D01*
X107000D01*
X107121Y105608D01*
X107223Y105676D01*
X108081Y106534D01*
X108213D01*
X108216Y106518D01*
X108277Y106427D01*
X108368Y106366D01*
X108475Y106345D01*
X109325D01*
X109432Y106366D01*
X109523Y106427D01*
X109584Y106518D01*
X109587Y106534D01*
X110311D01*
X110339Y106500D01*
X110382Y106285D01*
X110503Y106103D01*
X110685Y105982D01*
X110900Y105939D01*
X111115Y105982D01*
X111297Y106103D01*
X111418Y106285D01*
X111461Y106500D01*
X111418Y106715D01*
X111332Y106843D01*
X111409Y106957D01*
X111500Y106939D01*
X111715Y106982D01*
X111732Y106993D01*
X111844Y106934D01*
D02*
G37*
G36*
X105616Y108418D02*
X105624Y108406D01*
X105638Y108262D01*
X105565Y108153D01*
X105540Y108025D01*
Y107950D01*
X106300D01*
Y107650D01*
X105540D01*
Y107575D01*
X105565Y107447D01*
X105638Y107338D01*
X105624Y107194D01*
X105616Y107182D01*
X105613Y107166D01*
X105050D01*
X104929Y107142D01*
X104826Y107074D01*
X103833Y106080D01*
X103716Y106129D01*
Y107769D01*
X104381Y108434D01*
X105613D01*
X105616Y108418D01*
D02*
G37*
G36*
X96984Y99700D02*
X95750D01*
Y98897D01*
X95669Y98816D01*
X95300D01*
Y99450D01*
X91900D01*
X91823Y99545D01*
Y99919D01*
X91846Y100036D01*
X91950Y100036D01*
X93450D01*
Y101040D01*
Y102044D01*
X91950D01*
X91846Y102044D01*
X91823Y102161D01*
Y102535D01*
X91900Y102630D01*
X95300D01*
Y103264D01*
X95880D01*
X96001Y103288D01*
X96104Y103357D01*
X96247Y103500D01*
X96984D01*
Y99700D01*
D02*
G37*
G36*
X113964Y101382D02*
Y100920D01*
X113988Y100799D01*
X114057Y100697D01*
X114744Y100009D01*
Y98311D01*
X114580Y98147D01*
X114504Y98224D01*
X114401Y98292D01*
X114280Y98316D01*
X113879D01*
Y98881D01*
X113825D01*
Y100173D01*
Y101322D01*
X113952Y101390D01*
X113964Y101382D01*
D02*
G37*
G36*
X96984Y98200D02*
X97008Y98079D01*
X97076Y97977D01*
X97576Y97477D01*
X97679Y97408D01*
X97800Y97384D01*
X98769D01*
X99210Y96943D01*
X99157Y96816D01*
X98850D01*
Y97100D01*
X97550D01*
Y95900D01*
X98850D01*
Y96184D01*
X99169D01*
X99478Y95875D01*
X99416Y95758D01*
X99400Y95761D01*
X99185Y95718D01*
X99003Y95597D01*
X98882Y95415D01*
X98839Y95200D01*
X98882Y94985D01*
X99003Y94803D01*
X99185Y94682D01*
X99400Y94639D01*
X99615Y94682D01*
X99797Y94803D01*
X99952Y94807D01*
X100426Y94333D01*
X100377Y94216D01*
X99850D01*
X99797Y94297D01*
X99615Y94418D01*
X99400Y94461D01*
X99185Y94418D01*
X99003Y94297D01*
X98882Y94115D01*
X98839Y93900D01*
X98882Y93685D01*
X99003Y93503D01*
X99185Y93382D01*
X99400Y93339D01*
X99615Y93382D01*
X99797Y93503D01*
X99850Y93584D01*
X100563D01*
X101114Y93033D01*
X101065Y92916D01*
X98850D01*
Y93200D01*
X97550D01*
Y92000D01*
X98850D01*
Y92284D01*
X101269D01*
X103977Y89576D01*
X104079Y89508D01*
X104200Y89484D01*
X107300D01*
X107421Y89508D01*
X107523Y89576D01*
X108181Y90234D01*
X108313D01*
X108316Y90218D01*
X108377Y90127D01*
X108468Y90066D01*
X108575Y90045D01*
X109425D01*
X109532Y90066D01*
X109623Y90127D01*
X109684Y90218D01*
X109687Y90234D01*
X110016D01*
X110103Y90103D01*
X110285Y89982D01*
X110500Y89939D01*
X110715Y89982D01*
X110897Y90103D01*
X111018Y90285D01*
X111061Y90500D01*
X111018Y90715D01*
X110976Y90777D01*
X111044Y90904D01*
X111622D01*
X111729Y90797D01*
X111832Y90728D01*
X111953Y90704D01*
X113500D01*
X113621Y90728D01*
X113724Y90797D01*
X114211Y91284D01*
X115700D01*
Y90950D01*
X116569D01*
X116649Y90852D01*
X116639Y90800D01*
X116682Y90585D01*
X116697Y90562D01*
X116637Y90450D01*
X115700D01*
Y89150D01*
X116503D01*
X116637Y89016D01*
X116740Y88947D01*
X116861Y88923D01*
X117050D01*
X117103Y88843D01*
X117285Y88721D01*
X117500Y88678D01*
X117715Y88721D01*
X117897Y88843D01*
X118018Y89025D01*
X118061Y89239D01*
X118018Y89454D01*
X117897Y89636D01*
X117715Y89757D01*
X117500Y89800D01*
X117285Y89757D01*
X117103Y89636D01*
X116978Y89645D01*
X116900Y89718D01*
Y90198D01*
X117027Y90273D01*
X117200Y90239D01*
X117414Y90282D01*
X117596Y90403D01*
X117718Y90585D01*
X117761Y90800D01*
X117723Y90987D01*
X117718Y91014D01*
X117799Y91122D01*
X117885Y91139D01*
X118067Y91261D01*
X118188Y91443D01*
X118231Y91657D01*
X118195Y91835D01*
X118200Y91839D01*
X118415Y91882D01*
X118597Y92003D01*
X118718Y92185D01*
X118761Y92400D01*
X118718Y92615D01*
X118597Y92797D01*
X118415Y92918D01*
X118200Y92961D01*
X118116Y93030D01*
Y93421D01*
X118150D01*
Y94500D01*
Y95579D01*
X117919D01*
Y95525D01*
X116116D01*
Y95769D01*
X117091Y96744D01*
X118434D01*
X118493Y96632D01*
X118482Y96615D01*
X118439Y96400D01*
X118482Y96185D01*
X118484Y96182D01*
Y95579D01*
X118450D01*
Y94500D01*
Y93421D01*
X118681D01*
Y93475D01*
X119419D01*
Y93421D01*
X119650D01*
Y94500D01*
X119950D01*
Y93421D01*
X119984D01*
Y92900D01*
X120008Y92779D01*
X120076Y92677D01*
X120158Y92595D01*
X120139Y92500D01*
X120182Y92285D01*
X120303Y92103D01*
X120384Y92050D01*
Y89631D01*
X119203Y88450D01*
X119099Y88530D01*
X118868Y88626D01*
X118620Y88658D01*
X118372Y88626D01*
X118141Y88530D01*
X117942Y88378D01*
X117790Y88179D01*
X117694Y87948D01*
X117662Y87700D01*
X117694Y87452D01*
X117790Y87221D01*
X117942Y87022D01*
X118141Y86870D01*
X118372Y86774D01*
X118620Y86742D01*
X118868Y86774D01*
X119031Y86842D01*
X119591Y86282D01*
X119539Y86155D01*
X91823D01*
Y88340D01*
Y89759D01*
X91846Y89876D01*
X91950Y89876D01*
X93450D01*
Y90880D01*
Y91884D01*
X91950D01*
X91846Y91884D01*
X91823Y92001D01*
Y92375D01*
X91900Y92470D01*
X91950Y92470D01*
X95300D01*
Y93104D01*
X95449D01*
X95750Y92803D01*
Y92000D01*
X97050D01*
Y93200D01*
X96247D01*
X95803Y93644D01*
X95701Y93712D01*
X95580Y93736D01*
X95300D01*
Y94370D01*
X91950D01*
X91900Y94370D01*
X91823Y94465D01*
Y94915D01*
X91900Y95010D01*
X91950Y95010D01*
X95300D01*
Y95644D01*
X95860D01*
X95981Y95668D01*
X96084Y95737D01*
X96247Y95900D01*
X97050D01*
Y97100D01*
X95750D01*
Y96297D01*
X95729Y96276D01*
X95300D01*
Y96910D01*
X91950D01*
X91900Y96910D01*
X91823Y97005D01*
Y97455D01*
X91900Y97550D01*
X95300D01*
Y98184D01*
X95800D01*
X95921Y98208D01*
X96023Y98277D01*
X96247Y98500D01*
X96984D01*
Y98200D01*
D02*
G37*
G36*
X126522Y99031D02*
X126469Y98904D01*
X126050D01*
Y98350D01*
X126554D01*
Y98819D01*
X126681Y98872D01*
X127176Y98377D01*
X127279Y98308D01*
X127400Y98284D01*
X128369D01*
X128677Y97977D01*
X128779Y97908D01*
X128900Y97884D01*
X129050D01*
Y97600D01*
X130087D01*
X130136Y97483D01*
X128977Y96324D01*
X128908Y96221D01*
X128884Y96100D01*
Y95300D01*
X128250D01*
Y93704D01*
X127850D01*
Y95300D01*
X127216D01*
Y95973D01*
X127343Y95985D01*
X127370Y95851D01*
X127464Y95709D01*
X127606Y95615D01*
X127772Y95582D01*
X128227D01*
X128394Y95615D01*
X128536Y95709D01*
X128630Y95851D01*
X128663Y96018D01*
Y96783D01*
X128630Y96949D01*
X128536Y97091D01*
X128394Y97185D01*
X128227Y97218D01*
X127772D01*
X127606Y97185D01*
X127464Y97091D01*
X127370Y96949D01*
X127337Y96783D01*
Y96716D01*
X126500D01*
Y97050D01*
X125300D01*
Y95750D01*
X126500D01*
X126584Y95658D01*
Y95300D01*
X125950D01*
Y93704D01*
X125500D01*
X125422Y93688D01*
X125356Y93644D01*
X125312Y93578D01*
X125296Y93500D01*
Y86716D01*
X124763D01*
X124650Y86750D01*
Y88203D01*
X125023Y88576D01*
X125092Y88679D01*
X125116Y88800D01*
Y98300D01*
X125092Y98421D01*
X125023Y98523D01*
X123980Y99567D01*
X124029Y99684D01*
X125869D01*
X126522Y99031D01*
D02*
G37*
G36*
X121275Y96173D02*
X123080D01*
X123184Y96069D01*
Y92250D01*
X122500D01*
Y90950D01*
X123604D01*
Y90535D01*
X123519Y90450D01*
X122500D01*
Y89356D01*
X122379Y89332D01*
X122276Y89263D01*
X121571Y88558D01*
X121408Y88626D01*
X121160Y88658D01*
X120912Y88626D01*
X120681Y88530D01*
X120482Y88378D01*
X120330Y88179D01*
X120234Y87948D01*
X120202Y87700D01*
X120234Y87452D01*
X120330Y87221D01*
X120482Y87022D01*
X120681Y86870D01*
X120746Y86843D01*
X120721Y86716D01*
X120051D01*
X119478Y87289D01*
X119546Y87452D01*
X119578Y87700D01*
X119551Y87904D01*
X120924Y89276D01*
X120992Y89379D01*
X121016Y89500D01*
Y90881D01*
X121046Y90996D01*
X121550D01*
Y91700D01*
Y92404D01*
X121340D01*
X121261Y92500D01*
X121218Y92715D01*
X121202Y92738D01*
X121262Y92850D01*
X122300D01*
Y94150D01*
X121100D01*
Y93816D01*
X120627D01*
Y95525D01*
X120181D01*
Y95579D01*
X119807D01*
X119760Y95693D01*
X119834Y95772D01*
X120000Y95739D01*
X120214Y95782D01*
X120396Y95903D01*
X120518Y96085D01*
X120561Y96300D01*
X120518Y96514D01*
X120463Y96597D01*
X120531Y96724D01*
X121275D01*
Y96173D01*
D02*
G37*
G36*
X105716Y92118D02*
X105724Y92106D01*
X105738Y91962D01*
X105665Y91853D01*
X105640Y91725D01*
Y91650D01*
X106400D01*
Y91350D01*
X105640D01*
Y91275D01*
X105665Y91147D01*
X105738Y91038D01*
X105724Y90894D01*
X105716Y90882D01*
X105713Y90866D01*
X104175D01*
X103024Y92017D01*
X103073Y92134D01*
X105713D01*
X105716Y92118D01*
D02*
G37*
G36*
X130745Y97032D02*
Y95590D01*
X132055D01*
Y96608D01*
X132431Y96984D01*
X133626D01*
X133693Y96939D01*
X133785Y96920D01*
X135215D01*
X135298Y96852D01*
X135299Y95551D01*
X135298Y95526D01*
X135293Y95500D01*
X135295Y95487D01*
X135294Y95473D01*
X135322Y95265D01*
X135330Y95239D01*
X135336Y95213D01*
X135345Y95190D01*
Y95082D01*
X135365Y94984D01*
X135420Y94902D01*
X135795Y94527D01*
X135877Y94471D01*
X135975Y94452D01*
X139845D01*
Y86155D01*
X136004D01*
Y89500D01*
X135988Y89578D01*
X135944Y89644D01*
X135878Y89688D01*
X135800Y89704D01*
X135038D01*
X135030Y89712D01*
X135030Y89851D01*
X135041Y89859D01*
X135131Y89992D01*
X135162Y90150D01*
Y90750D01*
X133438D01*
Y90150D01*
X133469Y89992D01*
X133559Y89859D01*
X133570Y89851D01*
X133570Y89712D01*
X133562Y89704D01*
X133204D01*
Y93500D01*
X133188Y93578D01*
X133144Y93644D01*
X133078Y93688D01*
X133000Y93704D01*
X132504D01*
Y93850D01*
X130496D01*
Y93704D01*
X130150D01*
Y95300D01*
X129516D01*
Y95969D01*
X130628Y97081D01*
X130745Y97032D01*
D02*
G37*
%LPC*%
G36*
X110850Y96604D02*
X110346D01*
Y96050D01*
X110850D01*
Y96604D01*
D02*
G37*
G36*
X134150Y88150D02*
X133438D01*
Y87550D01*
X133469Y87392D01*
X133559Y87259D01*
X133692Y87169D01*
X133850Y87138D01*
X134150D01*
Y88150D01*
D02*
G37*
G36*
X135162D02*
X134450D01*
Y87138D01*
X134750D01*
X134908Y87169D01*
X135041Y87259D01*
X135131Y87392D01*
X135162Y87550D01*
Y88150D01*
D02*
G37*
G36*
X111654Y95750D02*
X111150D01*
Y95196D01*
X111654D01*
Y95750D01*
D02*
G37*
G36*
X112850Y89650D02*
X112296D01*
Y89146D01*
X112850D01*
Y89650D01*
D02*
G37*
G36*
X100750Y98150D02*
X100246D01*
Y97596D01*
X100750D01*
Y98150D01*
D02*
G37*
G36*
X101554D02*
X101050D01*
Y97596D01*
X101554D01*
Y98150D01*
D02*
G37*
G36*
X126554Y98050D02*
X126050D01*
Y97496D01*
X126554D01*
Y98050D01*
D02*
G37*
G36*
X125750D02*
X125246D01*
Y97496D01*
X125750D01*
Y98050D01*
D02*
G37*
G36*
X115450Y90400D02*
X114150D01*
Y89200D01*
X114484D01*
Y88980D01*
X114508Y88859D01*
X114576Y88757D01*
X115222Y88111D01*
X115154Y87948D01*
X115122Y87700D01*
X115154Y87452D01*
X115250Y87221D01*
X115402Y87022D01*
X115601Y86870D01*
X115832Y86774D01*
X116080Y86742D01*
X116328Y86774D01*
X116559Y86870D01*
X116758Y87022D01*
X116910Y87221D01*
X117006Y87452D01*
X117038Y87700D01*
X117006Y87948D01*
X116910Y88179D01*
X116758Y88378D01*
X116559Y88530D01*
X116328Y88626D01*
X116080Y88658D01*
X115832Y88626D01*
X115669Y88558D01*
X115154Y89073D01*
X115207Y89200D01*
X115450D01*
Y90400D01*
D02*
G37*
G36*
X110850Y95750D02*
X110346D01*
Y95196D01*
X110850D01*
Y95750D01*
D02*
G37*
G36*
X134750Y92062D02*
X134450D01*
Y91050D01*
X135162D01*
Y91650D01*
X135131Y91808D01*
X135041Y91941D01*
X134908Y92031D01*
X134750Y92062D01*
D02*
G37*
G36*
X113704Y90454D02*
X113150D01*
Y89950D01*
X113704D01*
Y90454D01*
D02*
G37*
G36*
X134150Y92062D02*
X133850D01*
X133692Y92031D01*
X133559Y91941D01*
X133469Y91808D01*
X133438Y91650D01*
Y91050D01*
X134150D01*
Y92062D01*
D02*
G37*
G36*
X122354Y91550D02*
X121850D01*
Y90996D01*
X122354D01*
Y91550D01*
D02*
G37*
G36*
X93750Y91884D02*
Y91030D01*
X95354D01*
Y91884D01*
X93750D01*
D02*
G37*
G36*
X112850Y90454D02*
X112296D01*
Y89950D01*
X112850D01*
Y90454D01*
D02*
G37*
G36*
X131350Y95354D02*
X130496D01*
Y94150D01*
X131350D01*
Y95354D01*
D02*
G37*
G36*
X132504D02*
X131650D01*
Y94150D01*
X132504D01*
Y95354D01*
D02*
G37*
G36*
X113704Y89650D02*
X113150D01*
Y89146D01*
X113704D01*
Y89650D01*
D02*
G37*
G36*
X122354Y92404D02*
X121850D01*
Y91850D01*
X122354D01*
Y92404D01*
D02*
G37*
G36*
X95354Y90730D02*
X93750D01*
Y89876D01*
X95354D01*
Y90730D01*
D02*
G37*
G36*
X114150Y108050D02*
X113646D01*
Y107496D01*
X114150D01*
Y108050D01*
D02*
G37*
G36*
X114954D02*
X114450D01*
Y107496D01*
X114954D01*
Y108050D01*
D02*
G37*
G36*
X100250Y108964D02*
X99691D01*
Y108250D01*
X100250D01*
Y108964D01*
D02*
G37*
G36*
X101109Y107950D02*
X100550D01*
Y107236D01*
X101109D01*
Y107950D01*
D02*
G37*
G36*
X101250Y106854D02*
X100696D01*
Y106350D01*
X101250D01*
Y106854D01*
D02*
G37*
G36*
X102104D02*
X101550D01*
Y106350D01*
X102104D01*
Y106854D01*
D02*
G37*
G36*
X100250Y107950D02*
X99691D01*
Y107236D01*
X100250D01*
Y107950D01*
D02*
G37*
G36*
X134959Y109700D02*
X134350D01*
Y108841D01*
X134675D01*
X134784Y108862D01*
X134876Y108924D01*
X134938Y109016D01*
X134959Y109125D01*
Y109700D01*
D02*
G37*
G36*
X134675Y110859D02*
X134350D01*
Y110000D01*
X134959D01*
Y110575D01*
X134938Y110684D01*
X134876Y110776D01*
X134784Y110838D01*
X134675Y110859D01*
D02*
G37*
G36*
X134050D02*
X133725D01*
X133616Y110838D01*
X133524Y110776D01*
X133374Y110780D01*
X133363Y110787D01*
X133275Y110804D01*
X132325D01*
X132237Y110787D01*
X132163Y110737D01*
X132113Y110663D01*
X132096Y110575D01*
Y110216D01*
X131700D01*
Y110550D01*
X130500D01*
Y109250D01*
X131700D01*
Y109584D01*
X132096D01*
Y109125D01*
X132113Y109037D01*
X132163Y108963D01*
X132237Y108913D01*
X132325Y108896D01*
X133275D01*
X133363Y108913D01*
X133374Y108920D01*
X133524Y108924D01*
X133616Y108862D01*
X133725Y108841D01*
X134050D01*
Y109850D01*
Y110859D01*
D02*
G37*
G36*
X136300Y108950D02*
X135100D01*
Y108616D01*
X131700D01*
Y108750D01*
X130500D01*
Y108416D01*
X129900D01*
X129779Y108392D01*
X129676Y108324D01*
X127776Y106424D01*
X127708Y106321D01*
X127684Y106200D01*
Y105531D01*
X125776Y103623D01*
X125708Y103521D01*
X125684Y103400D01*
Y102450D01*
X125603Y102397D01*
X125482Y102215D01*
X125439Y102000D01*
X125482Y101785D01*
X125603Y101603D01*
X125785Y101482D01*
X126000Y101439D01*
X126215Y101482D01*
X126397Y101603D01*
X126518Y101785D01*
X126561Y102000D01*
X126518Y102215D01*
X126397Y102397D01*
X126316Y102450D01*
Y103269D01*
X128223Y105176D01*
X128292Y105279D01*
X128316Y105400D01*
Y106069D01*
X130031Y107784D01*
X130500D01*
Y107450D01*
X131700D01*
Y107984D01*
X135100D01*
Y107650D01*
X136300D01*
Y108950D01*
D02*
G37*
G36*
X101109Y108964D02*
X100550D01*
Y108250D01*
X101109D01*
Y108964D01*
D02*
G37*
G36*
X114150Y108904D02*
X113646D01*
Y108350D01*
X114150D01*
Y108904D01*
D02*
G37*
G36*
X114954D02*
X114450D01*
Y108350D01*
X114954D01*
Y108904D01*
D02*
G37*
G36*
X101250Y106050D02*
X100696D01*
Y105546D01*
X101250D01*
Y106050D01*
D02*
G37*
G36*
X95354Y100890D02*
X93750D01*
Y100036D01*
X95354D01*
Y100890D01*
D02*
G37*
G36*
X134350Y100335D02*
X133785D01*
X133672Y100312D01*
X133577Y100248D01*
X133513Y100153D01*
X133492Y100050D01*
X134350D01*
Y100335D01*
D02*
G37*
G36*
X104754Y101004D02*
X104250D01*
Y100300D01*
X103950D01*
Y101004D01*
X103446D01*
Y99596D01*
Y99050D01*
X104100D01*
Y98900D01*
Y98800D01*
X104250D01*
Y98196D01*
X104754D01*
Y98800D01*
X106200D01*
X106600Y99200D01*
Y100000D01*
X106300Y100300D01*
X104754D01*
Y101004D01*
D02*
G37*
G36*
X101554Y99004D02*
X101050D01*
Y98450D01*
X101554D01*
Y99004D01*
D02*
G37*
G36*
X103950Y98750D02*
X103446D01*
Y98196D01*
X103950D01*
Y98750D01*
D02*
G37*
G36*
X125750Y98904D02*
X125246D01*
Y98350D01*
X125750D01*
Y98904D01*
D02*
G37*
G36*
X100750Y99004D02*
X100246D01*
Y98450D01*
X100750D01*
Y99004D01*
D02*
G37*
G36*
X132029Y104997D02*
X131702D01*
Y104250D01*
X132450D01*
Y104576D01*
X132418Y104737D01*
X132326Y104874D01*
X132190Y104965D01*
X132029Y104997D01*
D02*
G37*
G36*
X123950Y104904D02*
X123446D01*
Y104350D01*
X123950D01*
Y104904D01*
D02*
G37*
G36*
X124754D02*
X124250D01*
Y104350D01*
X124754D01*
Y104904D01*
D02*
G37*
G36*
Y104050D02*
X124250D01*
Y103496D01*
X124754D01*
Y104050D01*
D02*
G37*
G36*
X93750Y102044D02*
Y101190D01*
X95354D01*
Y102044D01*
X93750D01*
D02*
G37*
G36*
X132450Y103950D02*
X131702D01*
Y103203D01*
X132029D01*
X132190Y103235D01*
X132326Y103326D01*
X132418Y103463D01*
X132450Y103624D01*
Y103950D01*
D02*
G37*
G36*
X123950Y104050D02*
X123446D01*
Y103496D01*
X123950D01*
Y104050D01*
D02*
G37*
%LPD*%
D10*
X114800Y89800D02*
D03*
X113000D02*
D03*
X129700Y98200D02*
D03*
X131500D02*
D03*
X129700Y99600D02*
D03*
X131500D02*
D03*
X96400Y92600D02*
D03*
X98200D02*
D03*
X96400Y96500D02*
D03*
X98200D02*
D03*
X96400Y104100D02*
D03*
X98200D02*
D03*
X96400Y99100D02*
D03*
X98200D02*
D03*
X129700Y101000D02*
D03*
X131500D02*
D03*
X96500Y106200D02*
D03*
X98300D02*
D03*
X99600D02*
D03*
X101400D02*
D03*
X131500Y102400D02*
D03*
X129700D02*
D03*
D11*
X131100Y109900D02*
D03*
Y108100D02*
D03*
X135700Y108300D02*
D03*
Y106500D02*
D03*
X104100Y100300D02*
D03*
Y102100D02*
D03*
Y98900D02*
D03*
Y97100D02*
D03*
X125900Y96400D02*
D03*
Y98200D02*
D03*
X111000Y97700D02*
D03*
Y95900D02*
D03*
X124100Y102400D02*
D03*
Y104200D02*
D03*
X121700Y91700D02*
D03*
Y93500D02*
D03*
X114300Y108200D02*
D03*
Y106400D02*
D03*
X116300Y91600D02*
D03*
Y89800D02*
D03*
X118300Y108200D02*
D03*
Y106400D02*
D03*
X123100Y89800D02*
D03*
Y91600D02*
D03*
X100900Y96500D02*
D03*
Y98300D02*
D03*
D12*
X132800Y109850D02*
D03*
Y106350D02*
D03*
X134200Y106350D02*
D03*
Y109850D02*
D03*
D13*
X134300Y88300D02*
D03*
Y90900D02*
D03*
D14*
X131400Y96400D02*
D03*
X100400Y108100D02*
D03*
D15*
X128000Y96400D02*
D03*
X97000Y108100D02*
D03*
D16*
X134500Y99900D02*
D03*
Y99250D02*
D03*
Y98600D02*
D03*
Y97950D02*
D03*
Y97300D02*
D03*
D17*
Y100950D02*
D03*
Y96250D02*
D03*
D18*
X93600Y106120D02*
D03*
Y103580D02*
D03*
Y101040D02*
D03*
Y98500D02*
D03*
Y95960D02*
D03*
Y93420D02*
D03*
Y90880D02*
D03*
D19*
X108900Y108750D02*
D03*
X106300Y106850D02*
D03*
Y107800D02*
D03*
Y108750D02*
D03*
X108900Y106850D02*
D03*
X109000Y92450D02*
D03*
X106400Y90550D02*
D03*
Y91500D02*
D03*
Y92450D02*
D03*
X109000Y90550D02*
D03*
D20*
X129200Y87500D02*
D03*
D21*
X126900Y94000D02*
D03*
X129200D02*
D03*
X131500D02*
D03*
D22*
X112800Y102000D02*
D03*
Y101500D02*
D03*
Y101000D02*
D03*
Y100500D02*
D03*
Y100000D02*
D03*
Y99500D02*
D03*
Y99000D02*
D03*
Y98500D02*
D03*
Y98000D02*
D03*
Y97500D02*
D03*
Y97000D02*
D03*
Y96500D02*
D03*
X122300D02*
D03*
Y97000D02*
D03*
Y97500D02*
D03*
Y98000D02*
D03*
Y98500D02*
D03*
Y99000D02*
D03*
Y99500D02*
D03*
Y100000D02*
D03*
Y100500D02*
D03*
Y101000D02*
D03*
Y101500D02*
D03*
Y102000D02*
D03*
D23*
X114800Y94500D02*
D03*
X115300D02*
D03*
X115800D02*
D03*
X116300D02*
D03*
X116800D02*
D03*
X117300D02*
D03*
X117800D02*
D03*
X118300D02*
D03*
X118800D02*
D03*
X119300D02*
D03*
X119800D02*
D03*
X120300D02*
D03*
Y104000D02*
D03*
X119800D02*
D03*
X119300D02*
D03*
X118800D02*
D03*
X118300D02*
D03*
X117800D02*
D03*
X117300D02*
D03*
X116800D02*
D03*
X116300D02*
D03*
X115800D02*
D03*
X115300D02*
D03*
X114800D02*
D03*
D24*
X131553Y104100D02*
D03*
X129648D02*
D03*
D25*
X114300Y108200D02*
X115100D01*
X115200Y108100D01*
Y106411D02*
Y108100D01*
X115083Y106294D02*
X115200Y106411D01*
X115083Y105748D02*
Y106294D01*
Y105748D02*
X115300Y105531D01*
Y104000D02*
Y105531D01*
X115900Y98700D02*
Y100488D01*
X115480Y98187D02*
Y100314D01*
X114700Y101094D02*
Y101867D01*
X115140Y101248D02*
X115900Y100488D01*
X115140Y101248D02*
Y102560D01*
X114700Y101094D02*
X115480Y100314D01*
X115060Y98180D02*
Y100140D01*
X114280Y100920D02*
X115060Y100140D01*
X114280Y100920D02*
Y101620D01*
X98900Y97700D02*
X99900Y96700D01*
X100900Y95700D02*
X103000Y93600D01*
X100900Y95700D02*
Y96500D01*
X100700Y96700D02*
X100900Y96500D01*
X99900Y96700D02*
X100700D01*
X103000Y93600D02*
X107750D01*
X97800Y97700D02*
X98900D01*
X99300Y96500D02*
X102620Y93180D01*
X98200Y96500D02*
X99300D01*
X129247Y102853D02*
Y104100D01*
Y102853D02*
X129700Y102400D01*
X131500D02*
X131500Y102400D01*
Y101000D02*
Y102400D01*
X114300Y108200D02*
Y109200D01*
X121600Y90300D02*
X121700Y90400D01*
Y91700D01*
X126400Y98200D02*
X127000Y97600D01*
X125900Y98200D02*
X126400D01*
X120300Y93500D02*
Y94500D01*
Y92900D02*
Y93500D01*
X121700D01*
X120700Y89500D02*
Y92500D01*
X118900Y87700D02*
X120700Y89500D01*
X118620Y87700D02*
X118900D01*
X120610Y99243D02*
Y101200D01*
X119167Y97800D02*
X120610Y99243D01*
X116800Y97800D02*
X119167D01*
X115900Y98700D02*
X116800Y97800D01*
X115480Y98187D02*
X116667Y97000D01*
X116900D01*
X120610Y101200D02*
X121347Y101937D01*
X104100Y99600D02*
Y100300D01*
Y98900D02*
Y99600D01*
X112800Y98500D02*
X114500D01*
X104100Y99600D02*
X105900D01*
X109900Y98500D02*
X109900Y98500D01*
X112800D01*
X111953Y91020D02*
X113500D01*
X114080Y91600D01*
X116300D01*
X114100Y94200D02*
Y97300D01*
X108290Y93060D02*
X112960D01*
X114100Y94200D01*
X107750Y93600D02*
X108290Y93060D01*
X109000Y92450D02*
X112050D01*
X112400Y92100D01*
X102620Y93180D02*
X107520D01*
X108250Y92450D01*
X114580Y97700D02*
X115080Y97200D01*
X114280Y98000D02*
X114580Y97700D01*
X115060Y98180D01*
X115080Y97200D02*
X115500D01*
X114200Y98500D02*
X114400Y98700D01*
Y98600D02*
Y98700D01*
Y98600D02*
X114500Y98500D01*
X104100Y97100D02*
X104200Y97000D01*
X107600D01*
X112800Y98000D02*
X114280D01*
X115600Y110300D02*
X116300Y109600D01*
X111800Y110300D02*
X115600D01*
X110250Y108750D02*
X111800Y110300D01*
X108900Y108750D02*
X110250D01*
X114800Y102900D02*
X115140Y102560D01*
X114800Y102900D02*
Y104000D01*
X112160Y104407D02*
X114700Y101867D01*
X113900Y102000D02*
X114280Y101620D01*
X112800Y102000D02*
X113900D01*
X121347Y101937D02*
X122237D01*
X122300Y102000D01*
X115800Y95900D02*
X116900Y97000D01*
X118800Y96200D02*
X119000Y96400D01*
X116900Y97000D02*
X116960Y97060D01*
X119273D01*
X119293Y97040D02*
X122260D01*
X119273Y97060D02*
X119293Y97040D01*
X118800Y94500D02*
Y96200D01*
X119300Y95700D02*
X119900Y96300D01*
X119300Y94500D02*
Y95700D01*
X119900Y96300D02*
X120000D01*
X122260Y97040D02*
X122300Y97000D01*
X120200Y97500D02*
X122300D01*
X120000Y97700D02*
X120200Y97500D01*
X110550Y106850D02*
X110900Y106500D01*
X108900Y106850D02*
X110550D01*
X112160Y104407D02*
Y107773D01*
X111773Y108160D02*
X112160Y107773D01*
X110560Y108160D02*
X111773D01*
X110400Y108000D02*
X110560Y108160D01*
X111753Y91220D02*
X111953Y91020D01*
X107900Y107500D02*
X111500D01*
X107250Y106850D02*
X107900Y107500D01*
X107950Y106850D02*
X108900D01*
X107000Y105900D02*
X107950Y106850D01*
X105000Y105900D02*
X107000D01*
X118300Y108200D02*
Y109200D01*
X117300Y102100D02*
Y104000D01*
X116900Y101700D02*
X117300Y102100D01*
X115800Y101700D02*
X116900D01*
X117300Y104000D02*
X117300Y104000D01*
X115800Y101700D02*
Y104000D01*
X99500Y98700D02*
Y100400D01*
X105000Y105900D01*
X106300Y106850D02*
X107250D01*
X98200Y99100D02*
Y100000D01*
X105050Y106850D01*
X106300D01*
X104800Y107800D02*
X106300D01*
X104250Y108750D02*
X106300D01*
X103400Y107900D02*
X104250Y108750D01*
X103400Y105900D02*
Y107900D01*
X101100Y103600D02*
X103400Y105900D01*
X100300Y103600D02*
X101100D01*
X100900Y104100D02*
X102900Y106100D01*
X98200Y104100D02*
X100900D01*
X99500Y102800D02*
X100300Y103600D01*
X102900Y106100D02*
Y108000D01*
X104400Y109500D01*
X108200D01*
X108900Y108800D01*
Y108750D02*
Y108800D01*
X108194Y108000D02*
X110400D01*
X107444Y108750D02*
X108194Y108000D01*
X106300Y108750D02*
X107444D01*
X97300Y105200D02*
X98300Y106200D01*
X97300Y98200D02*
Y105200D01*
Y98200D02*
X97800Y97700D01*
X100006Y95200D02*
X102756Y92450D01*
X99400Y95200D02*
X100006D01*
X100694Y93900D02*
X104044Y90550D01*
X99400Y93900D02*
X100694D01*
X101400Y92600D02*
X104200Y89800D01*
X98200Y92600D02*
X101400D01*
X102756Y92450D02*
X106400D01*
X104044Y90550D02*
X106400D01*
X104200Y89800D02*
X107300D01*
X98200Y104100D02*
Y105100D01*
X113900Y97500D02*
X114100Y97300D01*
X112800Y97500D02*
X113900D01*
X123700Y102000D02*
X124100Y102400D01*
X122300Y102000D02*
X123700D01*
X95580Y93420D02*
X96400Y92600D01*
X93600Y93420D02*
X95580D01*
X95860Y95960D02*
X96400Y96500D01*
X93600Y95960D02*
X95860D01*
X95800Y98500D02*
X96400Y99100D01*
X93600Y98500D02*
X95800D01*
X95880Y103580D02*
X96400Y104100D01*
X93600Y103580D02*
X95880D01*
X96500Y107600D02*
X97000Y108100D01*
X96500Y106200D02*
Y107600D01*
X96420Y106120D02*
X96500Y106200D01*
X93600Y106120D02*
X96420D01*
X98300Y106200D02*
X99600D01*
X115800Y94500D02*
Y95900D01*
X105100Y91500D02*
X106400D01*
X117200Y90800D02*
Y91194D01*
X117010Y91384D02*
X117200Y91194D01*
X117010Y91384D02*
Y92178D01*
X112840Y91440D02*
X113400Y92000D01*
X112127Y91440D02*
X112840D01*
X108120Y91220D02*
X111753D01*
X111887Y91680D02*
X112127Y91440D01*
X108220Y91680D02*
X111887D01*
X109000Y90550D02*
X110450D01*
X110500Y90500D01*
X108050Y90550D02*
X109000D01*
X107300Y89800D02*
X108050Y90550D01*
X108250Y92450D02*
X109000D01*
X106400D02*
X107450D01*
X108220Y91680D01*
X116800Y92388D02*
X117010Y92178D01*
X117430Y91897D02*
X117564Y91764D01*
X117430Y91897D02*
Y92352D01*
X117300Y92482D02*
X117430Y92352D01*
X118200Y92400D02*
X118200D01*
X117800Y92800D02*
X118200Y92400D01*
X116300Y91600D02*
Y94500D01*
X117800Y92800D02*
Y94500D01*
X116800Y92388D02*
Y94500D01*
X117300Y92482D02*
Y94500D01*
X107450Y90550D02*
X108120Y91220D01*
X106400Y90550D02*
X107450D01*
X116300Y91600D02*
X116300Y91600D01*
X117600Y107500D02*
X118300Y108200D01*
X117600Y106998D02*
Y107500D01*
X117590Y106988D02*
X117600Y106998D01*
X117590Y105822D02*
Y106988D01*
Y105822D02*
X117800Y105612D01*
Y104000D02*
Y105612D01*
X118300Y106400D02*
X118300Y106400D01*
X118300Y104000D02*
Y106400D01*
X129000Y99600D02*
X129700D01*
X128500Y99100D02*
X129000Y99600D01*
X127500Y99100D02*
X128500D01*
X126100Y100500D02*
X127500Y99100D01*
X127400Y98600D02*
X128500D01*
X126000Y100000D02*
X127400Y98600D01*
X128900Y98200D02*
X129700D01*
X128500Y98600D02*
X128900Y98200D01*
X122300Y96500D02*
X123200D01*
X123500Y96200D01*
Y92000D02*
Y96200D01*
X123390Y89874D02*
X123920Y90404D01*
X123100Y91600D02*
X123500Y92000D01*
X123628Y89040D02*
X124380Y89792D01*
X123700Y87700D02*
X124800Y88800D01*
X122500Y89040D02*
X123628D01*
X123390Y89800D02*
Y89874D01*
X123100Y89800D02*
X123390D01*
X121160Y87700D02*
X122500Y89040D01*
X120300Y92900D02*
X120700Y92500D01*
X118620Y87700D02*
X119920Y86400D01*
X125600D01*
X126700Y87500D01*
X129200D01*
X133000Y88300D02*
X134300D01*
X132200Y87500D02*
X133000Y88300D01*
X129200Y87500D02*
X132200D01*
X126900Y96400D02*
X128000D01*
X125900D02*
X126900D01*
Y94000D02*
Y96400D01*
X129700Y99600D02*
Y101000D01*
X130600Y100100D02*
X131500Y101000D01*
X130600Y97500D02*
Y100100D01*
X129200Y96100D02*
X130600Y97500D01*
X129200Y94000D02*
Y96100D01*
X131400Y96400D02*
X132300Y97300D01*
X134500D01*
X131500Y98200D02*
X131750Y97950D01*
X134500D01*
X131500Y99600D02*
X132000D01*
X133000Y98600D01*
X134500D01*
X111000Y97700D02*
X111300Y98000D01*
X112800D01*
X109680Y100000D02*
X112800D01*
X107600Y102080D02*
X109680Y100000D01*
X104120Y102080D02*
X107600D01*
X104100Y102100D02*
X104120Y102080D01*
X107600Y97000D02*
Y97500D01*
X109600Y99500D01*
X112800D01*
X122300Y97500D02*
X123400D01*
X123920Y96980D01*
Y90404D02*
Y96980D01*
X122300Y99000D02*
X123400D01*
X122300Y99500D02*
X123600D01*
X124800Y98300D01*
Y88800D02*
Y98300D01*
X122300Y100000D02*
X126000D01*
X122300Y100500D02*
X126100D01*
X126000Y102000D02*
Y103400D01*
X124100Y97800D02*
Y98300D01*
X124380Y89792D02*
Y97520D01*
X123400Y99000D02*
X124100Y98300D01*
Y97800D02*
X124380Y97520D01*
X131100Y108100D02*
X131300Y108300D01*
X135700D01*
X132750Y109900D02*
X132800Y109850D01*
X131100Y109900D02*
X132750D01*
X134200Y106350D02*
X135550D01*
X135700Y106500D01*
X130600Y103300D02*
X131500Y102400D01*
X130600Y103300D02*
Y105100D01*
X131850Y106350D01*
X132800D01*
X129900Y108100D02*
X131100D01*
X126000Y103400D02*
X128000Y105400D01*
Y106200D01*
X129900Y108100D01*
X116300Y104000D02*
Y105464D01*
X115743Y106021D02*
X116300Y105464D01*
X115743Y106021D02*
Y106643D01*
X116300Y107200D01*
Y109600D01*
X114300Y105400D02*
X114800Y104900D01*
X114300Y105400D02*
Y106400D01*
X114800Y104000D02*
Y104900D01*
X116300Y89800D02*
X116861Y89239D01*
X117500D01*
X116800Y104000D02*
Y106300D01*
X116900Y106400D01*
X114800Y88980D02*
X116080Y87700D01*
X114800Y88980D02*
Y89800D01*
D26*
X138500Y93500D02*
D03*
Y103700D02*
D03*
X134800D02*
D03*
Y93500D02*
D03*
D27*
X123700Y87700D02*
D03*
D28*
X121160D02*
D03*
X118620D02*
D03*
X116080D02*
D03*
D29*
X107600Y102080D02*
D03*
Y97000D02*
D03*
D30*
X114300Y109200D02*
D03*
X121600Y90300D02*
D03*
X127000Y97600D02*
D03*
X116800Y97800D02*
D03*
X105900Y99600D02*
D03*
X109900Y98500D02*
D03*
X114400Y98700D02*
D03*
X120700Y92500D02*
D03*
X115500Y97200D02*
D03*
X119000Y96400D02*
D03*
X120000Y96300D02*
D03*
X120000Y97700D02*
D03*
X110900Y106500D02*
D03*
X111500Y107500D02*
D03*
X118300Y109200D02*
D03*
X115800Y101700D02*
D03*
X99500Y98700D02*
D03*
X104800Y107800D02*
D03*
X99500Y102800D02*
D03*
X98200Y105100D02*
D03*
X105100Y91500D02*
D03*
X117670Y91657D02*
D03*
X117200Y90800D02*
D03*
X112400Y92100D02*
D03*
X113400Y92000D02*
D03*
X110500Y90500D02*
D03*
X99400Y95200D02*
D03*
X118200Y92400D02*
D03*
X99400Y93900D02*
D03*
X126000Y102000D02*
D03*
X124100Y97800D02*
D03*
X115743Y106021D02*
D03*
X117500Y89239D02*
D03*
X116900Y106400D02*
D03*
D31*
X92500Y87500D02*
D03*
Y107500D02*
D03*
X95000Y87500D02*
D03*
X96250Y90000D02*
D03*
Y100000D02*
D03*
X95000Y107500D02*
D03*
X97500Y87500D02*
D03*
X98750Y90000D02*
D03*
X100000Y87500D02*
D03*
X101250Y90000D02*
D03*
X100000Y97500D02*
D03*
X101250Y100000D02*
D03*
X102500Y87500D02*
D03*
X103750Y95000D02*
D03*
X102500Y97500D02*
D03*
Y102500D02*
D03*
X105000Y87500D02*
D03*
X106250Y95000D02*
D03*
Y105000D02*
D03*
X107500Y87500D02*
D03*
X108750Y95000D02*
D03*
Y105000D02*
D03*
X110000Y87500D02*
D03*
X111250Y90000D02*
D03*
Y95000D02*
D03*
X110000Y97500D02*
D03*
Y102500D02*
D03*
X111250Y105000D02*
D03*
X112500Y87500D02*
D03*
X120000Y102500D02*
D03*
X121250Y105000D02*
D03*
X120000Y107500D02*
D03*
X122500Y92500D02*
D03*
Y107500D02*
D03*
X125000Y87500D02*
D03*
Y102500D02*
D03*
X126250Y105000D02*
D03*
X125000Y107500D02*
D03*
X127500Y102500D02*
D03*
Y107500D02*
D03*
X133750Y95000D02*
D03*
X132500Y102500D02*
D03*
X133750Y105000D02*
D03*
X136250Y90000D02*
D03*
Y105000D02*
D03*
X135000Y107500D02*
D03*
X137500Y87500D02*
D03*
X138750Y90000D02*
D03*
Y105000D02*
D03*
X137500Y107500D02*
D03*
D32*
X93600Y106120D02*
D03*
Y101040D02*
D03*
Y90880D02*
D03*
M02*
