G04 Layer_Physical_Order=2*
G04 Layer_Color=16711680*
%FSLAX43Y43*%
%MOMM*%
G71*
G01*
G75*
%ADD10R,0.900X0.800*%
%ADD18R,3.000X1.500*%
%ADD25C,0.220*%
G04:AMPARAMS|DCode=26|XSize=2.4mm|YSize=1.6mm|CornerRadius=0.4mm|HoleSize=0mm|Usage=FLASHONLY|Rotation=180.000|XOffset=0mm|YOffset=0mm|HoleType=Round|Shape=RoundedRectangle|*
%AMROUNDEDRECTD26*
21,1,2.400,0.800,0,0,180.0*
21,1,1.600,1.600,0,0,180.0*
1,1,0.800,-0.800,0.400*
1,1,0.800,0.800,0.400*
1,1,0.800,0.800,-0.400*
1,1,0.800,-0.800,-0.400*
%
%ADD26ROUNDEDRECTD26*%
%ADD27R,1.500X1.500*%
%ADD28C,1.500*%
%ADD29C,1.600*%
%ADD30C,0.700*%
%ADD31C,0.500*%
%ADD32C,1.000*%
G36*
X139845Y102755D02*
X135982D01*
X135884Y102735D01*
X135802Y102680D01*
X135420Y102298D01*
X135365Y102216D01*
X135345Y102118D01*
Y102010D01*
X135336Y101987D01*
X135330Y101961D01*
X135322Y101935D01*
X135294Y101727D01*
X135295Y101713D01*
X135293Y101700D01*
X135299Y95551D01*
X135298Y95526D01*
X135293Y95500D01*
X135295Y95487D01*
X135294Y95473D01*
X135322Y95265D01*
X135330Y95239D01*
X135336Y95213D01*
X135345Y95190D01*
Y95082D01*
X135365Y94984D01*
X135420Y94902D01*
X135795Y94527D01*
X135877Y94471D01*
X135975Y94452D01*
X139845D01*
Y86155D01*
X91823D01*
Y88340D01*
Y89759D01*
X91846Y89876D01*
X91950Y89876D01*
X93450D01*
Y90880D01*
Y91884D01*
X91950D01*
X91846Y91884D01*
X91823Y92001D01*
Y92375D01*
X91900Y92470D01*
X91950Y92470D01*
X95300D01*
Y93104D01*
X95920D01*
X96041Y93128D01*
X96144Y93197D01*
X96247Y93300D01*
X97050D01*
Y94473D01*
X97050Y94500D01*
Y94600D01*
X97050Y94627D01*
Y95800D01*
X96247D01*
X95863Y96184D01*
X95761Y96252D01*
X95640Y96276D01*
X95300D01*
Y96910D01*
X91950D01*
X91900Y96910D01*
X91823Y97005D01*
Y97455D01*
X91900Y97550D01*
X91950Y97550D01*
X95300D01*
Y98184D01*
X95569D01*
X95750Y98003D01*
Y97200D01*
X97050D01*
Y98400D01*
X96247D01*
X95923Y98724D01*
X95821Y98792D01*
X95700Y98816D01*
X95300D01*
Y99450D01*
X91950D01*
X91900Y99450D01*
X91823Y99545D01*
Y99919D01*
X91846Y100036D01*
X91950Y100036D01*
X93450D01*
Y101040D01*
Y102044D01*
X91950D01*
X91846Y102044D01*
X91823Y102161D01*
Y102535D01*
X91900Y102630D01*
X91950Y102630D01*
X95300D01*
Y103264D01*
X95489D01*
X95750Y103003D01*
Y102200D01*
X97050D01*
Y103400D01*
X96247D01*
X95843Y103803D01*
X95741Y103872D01*
X95620Y103896D01*
X95300D01*
Y104530D01*
X91950D01*
X91900Y104530D01*
X91823Y104625D01*
Y105075D01*
X91900Y105170D01*
X91950Y105170D01*
X95300D01*
Y105804D01*
X95850D01*
Y105600D01*
X97150D01*
Y106800D01*
X97150D01*
Y106900D01*
X97150D01*
Y108100D01*
X95850D01*
Y106900D01*
X95850D01*
Y106800D01*
X95850D01*
Y106436D01*
X95300D01*
Y107070D01*
X91950D01*
X91900Y107070D01*
X91823Y107165D01*
Y108660D01*
X91823Y108660D01*
Y111045D01*
X139845D01*
Y102755D01*
D02*
G37*
G36*
X95750Y95403D02*
Y94627D01*
X95750Y94600D01*
Y94500D01*
X95750Y94473D01*
Y93736D01*
X95300D01*
Y94370D01*
X91950D01*
X91900Y94370D01*
X91823Y94465D01*
Y94915D01*
X91900Y95010D01*
X91950Y95010D01*
X95300D01*
Y95644D01*
X95509D01*
X95750Y95403D01*
D02*
G37*
%LPC*%
G36*
X98850Y95800D02*
X97550D01*
Y94627D01*
X97550Y94600D01*
Y94500D01*
X97550Y94473D01*
Y93300D01*
X98850D01*
Y93505D01*
X98977Y93543D01*
X99003Y93503D01*
X99185Y93382D01*
X99400Y93339D01*
X99615Y93382D01*
X99797Y93503D01*
X99918Y93685D01*
X99961Y93900D01*
X99918Y94115D01*
X99797Y94297D01*
X99615Y94418D01*
X99400Y94461D01*
X99185Y94418D01*
X99003Y94297D01*
X98977Y94257D01*
X98850Y94295D01*
Y94473D01*
X98850Y94500D01*
Y94600D01*
X98850Y94627D01*
Y94805D01*
X98977Y94843D01*
X99003Y94803D01*
X99185Y94682D01*
X99400Y94639D01*
X99615Y94682D01*
X99797Y94803D01*
X99918Y94985D01*
X99961Y95200D01*
X99918Y95415D01*
X99797Y95597D01*
X99615Y95718D01*
X99400Y95761D01*
X99185Y95718D01*
X99003Y95597D01*
X98977Y95557D01*
X98850Y95595D01*
Y95800D01*
D02*
G37*
G36*
X99500Y99261D02*
X99285Y99218D01*
X99103Y99097D01*
X98982Y98915D01*
X98939Y98700D01*
X98958Y98605D01*
X98753Y98400D01*
X97550D01*
Y97200D01*
X98850D01*
Y97603D01*
X99405Y98158D01*
X99500Y98139D01*
X99715Y98182D01*
X99897Y98303D01*
X100018Y98485D01*
X100061Y98700D01*
X100018Y98915D01*
X99897Y99097D01*
X99715Y99218D01*
X99500Y99261D01*
D02*
G37*
G36*
X106100Y100200D02*
X105700D01*
X105400Y99900D01*
Y99200D01*
X105600Y99000D01*
X106400D01*
X106600Y99200D01*
X108700D01*
X109300Y98600D01*
Y98200D01*
X109600Y97900D01*
X110200D01*
X110500Y98200D01*
Y98800D01*
X110200Y99100D01*
X109700D01*
X108700Y100100D01*
X106200D01*
X106100Y100200D01*
D02*
G37*
G36*
X107600Y98009D02*
X107339Y97974D01*
X107096Y97873D01*
X106887Y97713D01*
X106727Y97504D01*
X106626Y97261D01*
X106591Y97000D01*
X106626Y96739D01*
X106727Y96496D01*
X106887Y96287D01*
X107096Y96127D01*
X107339Y96026D01*
X107600Y95991D01*
X107861Y96026D01*
X108104Y96127D01*
X108313Y96287D01*
X108474Y96496D01*
X108574Y96739D01*
X108609Y97000D01*
X108574Y97261D01*
X108474Y97504D01*
X108313Y97713D01*
X108104Y97873D01*
X107861Y97974D01*
X107600Y98009D01*
D02*
G37*
G36*
X121160Y88658D02*
X120912Y88626D01*
X120681Y88530D01*
X120482Y88378D01*
X120330Y88179D01*
X120234Y87948D01*
X120202Y87700D01*
X120234Y87452D01*
X120330Y87221D01*
X120482Y87022D01*
X120681Y86870D01*
X120912Y86774D01*
X121160Y86742D01*
X121408Y86774D01*
X121639Y86870D01*
X121838Y87022D01*
X121990Y87221D01*
X122086Y87452D01*
X122118Y87700D01*
X122086Y87948D01*
X121990Y88179D01*
X121838Y88378D01*
X121639Y88530D01*
X121408Y88626D01*
X121160Y88658D01*
D02*
G37*
G36*
X118620D02*
X118372Y88626D01*
X118141Y88530D01*
X117942Y88378D01*
X117790Y88179D01*
X117694Y87948D01*
X117662Y87700D01*
X117694Y87452D01*
X117790Y87221D01*
X117942Y87022D01*
X118141Y86870D01*
X118372Y86774D01*
X118620Y86742D01*
X118868Y86774D01*
X119099Y86870D01*
X119298Y87022D01*
X119450Y87221D01*
X119546Y87452D01*
X119578Y87700D01*
X119546Y87948D01*
X119450Y88179D01*
X119298Y88378D01*
X119099Y88530D01*
X118868Y88626D01*
X118620Y88658D01*
D02*
G37*
G36*
X93750Y91884D02*
Y91030D01*
X95354D01*
Y91884D01*
X93750D01*
D02*
G37*
G36*
X95354Y90730D02*
X93750D01*
Y89876D01*
X95354D01*
Y90730D01*
D02*
G37*
G36*
X98150Y108154D02*
X97596D01*
Y107650D01*
X98150D01*
Y108154D01*
D02*
G37*
G36*
X99004Y107350D02*
X97596D01*
Y106846D01*
X97650Y106741D01*
X97650Y106719D01*
Y105600D01*
X97731D01*
X97760Y105558D01*
X97788Y105473D01*
X97682Y105315D01*
X97639Y105100D01*
X97682Y104885D01*
X97803Y104703D01*
X97985Y104582D01*
X98200Y104539D01*
X98415Y104582D01*
X98597Y104703D01*
X98718Y104885D01*
X98761Y105100D01*
X98718Y105315D01*
X98612Y105473D01*
X98640Y105558D01*
X98669Y105600D01*
X98950D01*
Y105600D01*
X98950D01*
X98950Y105600D01*
X100250D01*
Y106800D01*
X99112D01*
X99004Y106846D01*
X99004Y106927D01*
Y107350D01*
D02*
G37*
G36*
X118300Y109761D02*
X118085Y109718D01*
X117903Y109597D01*
X117782Y109415D01*
X117739Y109200D01*
X117758Y109105D01*
X116469Y107816D01*
X111950D01*
X111897Y107897D01*
X111715Y108018D01*
X111500Y108061D01*
X111285Y108018D01*
X111103Y107897D01*
X110982Y107715D01*
X110939Y107500D01*
X110982Y107285D01*
X111068Y107157D01*
X110991Y107043D01*
X110900Y107061D01*
X110685Y107018D01*
X110503Y106897D01*
X110382Y106715D01*
X110339Y106500D01*
X110382Y106285D01*
X110420Y106228D01*
X110360Y106116D01*
X102050D01*
Y106800D01*
X100750D01*
Y105600D01*
X101553D01*
X101577Y105576D01*
X101679Y105508D01*
X101800Y105484D01*
X113369D01*
X115484Y103369D01*
Y102150D01*
X115403Y102097D01*
X115282Y101915D01*
X115239Y101700D01*
X115282Y101485D01*
X115403Y101303D01*
X115585Y101182D01*
X115800Y101139D01*
X115895Y101158D01*
X118684Y98369D01*
Y96850D01*
X118603Y96797D01*
X118482Y96615D01*
X118439Y96400D01*
X118482Y96185D01*
X118603Y96003D01*
X118785Y95882D01*
X119000Y95839D01*
X119215Y95882D01*
X119397Y96003D01*
X119543Y95994D01*
X119603Y95903D01*
X119785Y95782D01*
X120000Y95739D01*
X120214Y95782D01*
X120396Y95903D01*
X120518Y96085D01*
X120561Y96300D01*
X120542Y96395D01*
X121123Y96977D01*
X121157Y97027D01*
X121284Y96988D01*
Y92845D01*
X121157Y92806D01*
X121097Y92897D01*
X120937Y93003D01*
X120924Y93023D01*
X116831Y97116D01*
X116873Y97254D01*
X117015Y97282D01*
X117197Y97403D01*
X117318Y97585D01*
X117361Y97800D01*
X117318Y98015D01*
X117197Y98197D01*
X117015Y98318D01*
X116800Y98361D01*
X116585Y98318D01*
X116403Y98197D01*
X116282Y98015D01*
X116239Y97800D01*
X116275Y97622D01*
X116169Y97516D01*
X115950D01*
X115897Y97597D01*
X115715Y97718D01*
X115500Y97761D01*
X115285Y97718D01*
X115103Y97597D01*
X114982Y97415D01*
X114939Y97200D01*
X114982Y96985D01*
X115103Y96803D01*
X115285Y96682D01*
X115500Y96639D01*
X115715Y96682D01*
X115897Y96803D01*
X115950Y96884D01*
X116169D01*
X120245Y92808D01*
X120182Y92715D01*
X120139Y92500D01*
X120182Y92285D01*
X120303Y92103D01*
X120485Y91982D01*
X120700Y91939D01*
X120915Y91982D01*
X121037Y92064D01*
X121118Y91965D01*
X119369Y90216D01*
X117545D01*
X117506Y90343D01*
X117596Y90403D01*
X117718Y90585D01*
X117761Y90800D01*
X117723Y90987D01*
X117718Y91014D01*
X117799Y91122D01*
X117885Y91139D01*
X118067Y91261D01*
X118188Y91443D01*
X118231Y91657D01*
X118195Y91835D01*
X118200Y91839D01*
X118415Y91882D01*
X118597Y92003D01*
X118718Y92185D01*
X118761Y92400D01*
X118718Y92615D01*
X118597Y92797D01*
X118415Y92918D01*
X118200Y92961D01*
X117985Y92918D01*
X117803Y92797D01*
X117750Y92716D01*
X114064D01*
X113797Y92983D01*
X113694Y93052D01*
X113573Y93076D01*
X112127D01*
X112006Y93052D01*
X111903Y92983D01*
X110276Y91357D01*
X110208Y91254D01*
X110184Y91133D01*
Y90950D01*
X110103Y90897D01*
X109982Y90715D01*
X109939Y90500D01*
X109982Y90285D01*
X110103Y90103D01*
X110285Y89982D01*
X110500Y89939D01*
X110715Y89982D01*
X110897Y90103D01*
X111018Y90285D01*
X111061Y90500D01*
X111018Y90715D01*
X110897Y90897D01*
X110885Y90904D01*
X110872Y91059D01*
X111756Y91943D01*
X111878Y91906D01*
X111882Y91885D01*
X112003Y91703D01*
X112185Y91582D01*
X112400Y91539D01*
X112467Y91553D01*
X112943Y91076D01*
X113046Y91008D01*
X113167Y90984D01*
X116569D01*
X116658Y90895D01*
X116639Y90800D01*
X116682Y90585D01*
X116803Y90403D01*
X116893Y90343D01*
X116855Y90216D01*
X116800D01*
X116679Y90192D01*
X116576Y90123D01*
X115856Y89404D01*
X115788Y89301D01*
X115764Y89180D01*
Y88597D01*
X115601Y88530D01*
X115402Y88378D01*
X115250Y88179D01*
X115154Y87948D01*
X115122Y87700D01*
X115154Y87452D01*
X115250Y87221D01*
X115402Y87022D01*
X115601Y86870D01*
X115832Y86774D01*
X116080Y86742D01*
X116328Y86774D01*
X116559Y86870D01*
X116758Y87022D01*
X116910Y87221D01*
X117006Y87452D01*
X117038Y87700D01*
X117006Y87948D01*
X116910Y88179D01*
X116758Y88378D01*
X116559Y88530D01*
X116396Y88597D01*
Y89049D01*
X116886Y89539D01*
X116985Y89458D01*
X116982Y89454D01*
X116939Y89239D01*
X116982Y89025D01*
X117103Y88843D01*
X117285Y88721D01*
X117500Y88678D01*
X117715Y88721D01*
X117883Y88834D01*
X122119D01*
X122750Y88203D01*
Y86750D01*
X124650D01*
Y88650D01*
X123197D01*
X122473Y89373D01*
X122371Y89442D01*
X122250Y89466D01*
X119559D01*
X119546Y89593D01*
X119621Y89608D01*
X119724Y89676D01*
X121824Y91776D01*
X121892Y91879D01*
X121916Y92000D01*
Y98100D01*
X121892Y98221D01*
X121824Y98324D01*
X117516Y102631D01*
Y106100D01*
X117492Y106221D01*
X117440Y106298D01*
X117461Y106400D01*
X117418Y106615D01*
X117297Y106797D01*
X117115Y106918D01*
X116900Y106961D01*
X116685Y106918D01*
X116503Y106797D01*
X116382Y106615D01*
X116339Y106400D01*
X116354Y106326D01*
X116234Y106276D01*
X116140Y106417D01*
X115958Y106539D01*
X115743Y106582D01*
X115529Y106539D01*
X115347Y106417D01*
X115225Y106236D01*
X115183Y106021D01*
X115225Y105806D01*
X115347Y105624D01*
X115427Y105571D01*
Y105080D01*
X115310Y105031D01*
X113897Y106443D01*
X113795Y106512D01*
X113674Y106536D01*
X111454D01*
X111418Y106715D01*
X111332Y106843D01*
X111409Y106957D01*
X111500Y106939D01*
X111715Y106982D01*
X111897Y107103D01*
X111950Y107184D01*
X116600D01*
X116721Y107208D01*
X116824Y107276D01*
X118205Y108658D01*
X118300Y108639D01*
X118515Y108682D01*
X118697Y108803D01*
X118818Y108985D01*
X118861Y109200D01*
X118818Y109415D01*
X118697Y109597D01*
X118515Y109718D01*
X118300Y109761D01*
D02*
G37*
G36*
X99004Y108154D02*
X98450D01*
Y107650D01*
X99004D01*
Y108154D01*
D02*
G37*
G36*
X98850Y103400D02*
X97550D01*
Y102200D01*
X98850D01*
Y102484D01*
X99050D01*
X99103Y102403D01*
X99285Y102282D01*
X99500Y102239D01*
X99715Y102282D01*
X99897Y102403D01*
X100018Y102585D01*
X100061Y102800D01*
X100018Y103015D01*
X99897Y103197D01*
X99715Y103318D01*
X99500Y103361D01*
X99285Y103318D01*
X99103Y103197D01*
X99050Y103116D01*
X98850D01*
Y103400D01*
D02*
G37*
G36*
X107600Y103089D02*
X107339Y103054D01*
X107096Y102953D01*
X106887Y102793D01*
X106727Y102584D01*
X106626Y102341D01*
X106591Y102080D01*
X106626Y101819D01*
X106727Y101576D01*
X106887Y101367D01*
X107096Y101206D01*
X107339Y101106D01*
X107600Y101071D01*
X107861Y101106D01*
X108104Y101206D01*
X108313Y101367D01*
X108474Y101576D01*
X108574Y101819D01*
X108609Y102080D01*
X108574Y102341D01*
X108474Y102584D01*
X108313Y102793D01*
X108104Y102953D01*
X107861Y103054D01*
X107600Y103089D01*
D02*
G37*
G36*
X95354Y100890D02*
X93750D01*
Y100036D01*
X95354D01*
Y100890D01*
D02*
G37*
G36*
X126000Y102561D02*
X125785Y102518D01*
X125603Y102397D01*
X125482Y102215D01*
X125439Y102000D01*
X125458Y101905D01*
X124176Y100623D01*
X124108Y100521D01*
X124084Y100400D01*
Y98531D01*
X123877Y98324D01*
X123863Y98303D01*
X123703Y98197D01*
X123582Y98015D01*
X123539Y97800D01*
X123582Y97585D01*
X123703Y97403D01*
X123885Y97282D01*
X124100Y97239D01*
X124315Y97282D01*
X124497Y97403D01*
X124618Y97585D01*
X124661Y97800D01*
X124618Y98015D01*
X124555Y98108D01*
X124623Y98176D01*
X124692Y98279D01*
X124716Y98400D01*
Y100269D01*
X125905Y101458D01*
X126000Y101439D01*
X126215Y101482D01*
X126397Y101603D01*
X126518Y101785D01*
X126561Y102000D01*
X126518Y102215D01*
X126397Y102397D01*
X126215Y102518D01*
X126000Y102561D01*
D02*
G37*
G36*
X93750Y102044D02*
Y101190D01*
X95354D01*
Y102044D01*
X93750D01*
D02*
G37*
%LPD*%
D10*
X96500Y107500D02*
D03*
X98300D02*
D03*
X96400Y95200D02*
D03*
X98200D02*
D03*
X96400Y97800D02*
D03*
X98200D02*
D03*
X96400Y102800D02*
D03*
X98200D02*
D03*
X96400Y93900D02*
D03*
X98200D02*
D03*
X99600Y106200D02*
D03*
X101400D02*
D03*
X96500D02*
D03*
X98300D02*
D03*
D18*
X93600Y106120D02*
D03*
Y103580D02*
D03*
Y101040D02*
D03*
Y98500D02*
D03*
Y95960D02*
D03*
Y93420D02*
D03*
Y90880D02*
D03*
D25*
X116800Y97700D02*
Y97800D01*
X116300Y97200D02*
X116800Y97700D01*
X105900Y99600D02*
X108800D01*
X109900Y98500D01*
X111180Y106220D02*
X113674D01*
X116220Y102213D02*
Y103674D01*
X113674Y106220D02*
X116220Y103674D01*
X115800Y101700D02*
Y103500D01*
X113500Y105800D02*
X115800Y103500D01*
X101800Y105800D02*
X113500D01*
X120900Y97200D02*
Y98200D01*
X119420Y97980D02*
Y99013D01*
X116300Y97200D02*
X120700Y92800D01*
Y92500D02*
Y92800D01*
X115500Y97200D02*
X116300D01*
X119000Y96400D02*
Y98500D01*
X119420Y97980D02*
X119700Y97700D01*
X120000Y96300D02*
X120900Y97200D01*
X119700Y97700D02*
X120000D01*
X110900Y106500D02*
X111180Y106220D01*
X111500Y107500D02*
X116600D01*
X118300Y109200D01*
X101400Y106200D02*
X101800Y105800D01*
X98200Y97800D02*
X98600D01*
X99500Y98700D01*
X98200Y102800D02*
X99500D01*
X98200Y105100D02*
Y106100D01*
X98300Y106200D01*
X93600Y103580D02*
X95620D01*
X96400Y102800D01*
X93600Y98500D02*
X95700D01*
X96400Y97800D01*
X93600Y95960D02*
X95640D01*
X96400Y95200D01*
X93600Y93420D02*
X95920D01*
X96400Y93900D01*
X96500Y106200D02*
Y107500D01*
X96420Y106120D02*
X96500Y106200D01*
X93600Y106120D02*
X96420D01*
X98300Y106200D02*
X99600D01*
X113933Y92400D02*
X118200D01*
X113573Y92760D02*
X113933Y92400D01*
X117527Y91800D02*
X117670Y91657D01*
X116700Y91300D02*
X117200Y90800D01*
X113939Y91800D02*
X117527D01*
X113739Y92000D02*
X113939Y91800D01*
X113167Y91300D02*
X116700D01*
X112400Y92067D02*
X113167Y91300D01*
X113400Y92000D02*
X113739D01*
X112400Y92067D02*
Y92100D01*
X110500Y90500D02*
Y91133D01*
X112127Y92760D02*
X113573D01*
X110500Y91133D02*
X112127Y92760D01*
X98200Y95200D02*
X99400D01*
X98200Y93900D02*
X99400D01*
X124400Y100400D02*
X126000Y102000D01*
X124400Y98400D02*
Y100400D01*
X124100Y97800D02*
Y98100D01*
X124400Y98400D01*
X115743Y104745D02*
Y106021D01*
Y104745D02*
X116640Y103848D01*
X117500Y89239D02*
X117589Y89150D01*
X115800Y101700D02*
X119000Y98500D01*
X116900Y106400D02*
X117200Y106100D01*
X116640Y102460D02*
Y103848D01*
X116220Y102213D02*
X119420Y99013D01*
X116640Y102460D02*
X120900Y98200D01*
X117200Y102500D02*
Y106100D01*
X117589Y89150D02*
X122250D01*
X123700Y87700D01*
X117200Y102500D02*
X121600Y98100D01*
Y92000D02*
Y98100D01*
X119500Y89900D02*
X121600Y92000D01*
X116800Y89900D02*
X119500D01*
X116080Y89180D02*
X116800Y89900D01*
X116080Y87700D02*
Y89180D01*
D26*
X138500Y93500D02*
D03*
Y103700D02*
D03*
X134800D02*
D03*
Y93500D02*
D03*
D27*
X123700Y87700D02*
D03*
D28*
X121160D02*
D03*
X118620D02*
D03*
X116080D02*
D03*
D29*
X107600Y102080D02*
D03*
Y97000D02*
D03*
D30*
X114300Y109200D02*
D03*
X121600Y90300D02*
D03*
X127000Y97600D02*
D03*
X116800Y97800D02*
D03*
X105900Y99600D02*
D03*
X109900Y98500D02*
D03*
X114400Y98700D02*
D03*
X120700Y92500D02*
D03*
X115500Y97200D02*
D03*
X119000Y96400D02*
D03*
X120000Y96300D02*
D03*
X120000Y97700D02*
D03*
X110900Y106500D02*
D03*
X111500Y107500D02*
D03*
X118300Y109200D02*
D03*
X115800Y101700D02*
D03*
X99500Y98700D02*
D03*
X104800Y107800D02*
D03*
X99500Y102800D02*
D03*
X98200Y105100D02*
D03*
X105100Y91500D02*
D03*
X117670Y91657D02*
D03*
X117200Y90800D02*
D03*
X112400Y92100D02*
D03*
X113400Y92000D02*
D03*
X110500Y90500D02*
D03*
X99400Y95200D02*
D03*
X118200Y92400D02*
D03*
X99400Y93900D02*
D03*
X126000Y102000D02*
D03*
X124100Y97800D02*
D03*
X115743Y106021D02*
D03*
X117500Y89239D02*
D03*
X116900Y106400D02*
D03*
D31*
X92500Y87500D02*
D03*
Y107500D02*
D03*
X95000Y87500D02*
D03*
X96250Y90000D02*
D03*
Y100000D02*
D03*
X95000Y107500D02*
D03*
X97500Y87500D02*
D03*
X98750Y90000D02*
D03*
X100000Y87500D02*
D03*
X101250Y90000D02*
D03*
X100000Y97500D02*
D03*
X101250Y100000D02*
D03*
X102500Y87500D02*
D03*
X103750Y95000D02*
D03*
X102500Y97500D02*
D03*
Y102500D02*
D03*
X105000Y87500D02*
D03*
X106250Y95000D02*
D03*
Y105000D02*
D03*
X107500Y87500D02*
D03*
X108750Y95000D02*
D03*
Y105000D02*
D03*
X110000Y87500D02*
D03*
X111250Y90000D02*
D03*
Y95000D02*
D03*
X110000Y97500D02*
D03*
Y102500D02*
D03*
X111250Y105000D02*
D03*
X112500Y87500D02*
D03*
X120000Y102500D02*
D03*
X121250Y105000D02*
D03*
X120000Y107500D02*
D03*
X122500Y92500D02*
D03*
Y107500D02*
D03*
X125000Y87500D02*
D03*
Y102500D02*
D03*
X126250Y105000D02*
D03*
X125000Y107500D02*
D03*
X127500Y102500D02*
D03*
Y107500D02*
D03*
X133750Y95000D02*
D03*
X132500Y102500D02*
D03*
X133750Y105000D02*
D03*
X136250Y90000D02*
D03*
Y105000D02*
D03*
X135000Y107500D02*
D03*
X137500Y87500D02*
D03*
X138750Y90000D02*
D03*
Y105000D02*
D03*
X137500Y107500D02*
D03*
D32*
X93600Y106120D02*
D03*
Y101040D02*
D03*
Y90880D02*
D03*
M02*
